<?xml version="1.0" encoding="utf-8"?>
<!-- Generator: Adobe Illustrator 21.0.0, SVG Export Plug-In . SVG Version: 6.00 Build 0)  -->
<svg version="1.1" id="Layer_1" xmlns="http://www.w3.org/2000/svg" xmlns:xlink="http://www.w3.org/1999/xlink" x="0px" y="0px"
	 viewBox="0 0 441.3 188" style="enable-background:new 0 0 441.3 188;" xml:space="preserve">
<style type="text/css">
	.st0{fill:#FFCB05;}
	.st1{fill:#FFFFFF;}
</style>
<g>
	<g>
		<g>
			<g>
				<path d="M58.8,73.2c0-7.7-0.5-8.8-4.3-9.8c-0.8-0.2-2.4-0.3-3.2-0.3c-0.4,0-0.8-0.2-0.8-0.6c0-0.6,0.5-0.8,1.5-0.8
					c4.3,0,10.3,0.3,10.8,0.3c0.5,0,6.5-0.3,9.3-0.3c1,0,1.5,0.2,1.5,0.8c0,0.4-0.4,0.6-0.8,0.6c-0.7,0-1.2,0.1-2.4,0.3
					c-2.6,0.5-3.3,2.1-3.5,5.4c-0.2,3-0.2,5.9-0.2,9.9v10.7c0,4.3-0.1,4.5-1.2,5.1c-6.1,3.2-14.7,4.3-20.2,4.3
					c-7.2,0-20.8-1-31.3-10.2c-5.8-5-11.3-15.2-11.3-27.1c0-15.2,7.4-26,15.9-31.3c8.6-5.3,18-6,25.3-6c6,0,12.8,1.2,14.6,1.6
					c2,0.5,5.3,0.9,7.7,1c1,0.1,1.1,0.5,1.1,0.9c0,1.3-0.7,4-0.7,13.5c0,1.5-0.2,2-0.9,2c-0.5,0-0.6-0.6-0.7-1.4
					c-0.1-1.3-0.6-4-2-6.3c-2.4-3.6-10.1-7.7-22.4-7.7c-6,0-13.1,0.6-20.4,6.3C14.9,38.4,11,47,11,58.2c0,13.4,6.8,23.1,10.1,26.4
					c7.5,7.3,16.2,10.2,24.9,10.2c3.4,0,8.4-0.6,10.9-2c1.2-0.7,1.9-1.7,1.9-3.3V73.2z"/>
			</g>
			<g>
				<path d="M105.5,27.9c1.1-3.1,1.5-3.7,2.1-3.7c0.6,0,1,0.5,2.1,3.4c1.4,3.6,16.4,42.9,22.2,57.4c3.4,8.5,6.2,10,8.2,10.6
					c1.4,0.5,2.9,0.6,3.8,0.6c0.6,0,1,0.1,1,0.6c0,0.6-0.9,0.8-1.9,0.8c-1.4,0-8.4,0-14.9-0.2c-1.8-0.1-2.9-0.1-2.9-0.7
					c0-0.4,0.3-0.6,0.7-0.7c0.6-0.2,1.1-1,0.6-2.6L117.5,70c-0.2-0.4-0.4-0.6-0.9-0.6H96.2c-0.5,0-0.8,0.3-1,0.8L89.5,87
					c-0.9,2.4-1.3,4.7-1.3,6.4c0,1.9,2,2.8,3.6,2.8h1c0.7,0,1,0.2,1,0.6c0,0.6-0.6,0.8-1.4,0.8c-2.3,0-6.4-0.3-7.4-0.3
					c-1,0-6.3,0.3-10.8,0.3c-1.2,0-1.8-0.2-1.8-0.8c0-0.4,0.4-0.6,0.9-0.6c0.7,0,2-0.1,2.8-0.2c4.4-0.6,6.3-4.2,8-8.9L105.5,27.9z
					 M115.4,66c0.5,0,0.5-0.3,0.4-0.7l-9-25.7c-0.5-1.4-1-1.4-1.4,0L97,65.3c-0.2,0.5,0,0.7,0.3,0.7H115.4z"/>
			</g>
			<g>
				<path d="M154.7,53.1c0-14.9,0-17.5-0.2-20.6c-0.2-3.2-1-4.8-4.1-5.4c-0.8-0.2-2.4-0.3-3.2-0.3c-0.4,0-0.8-0.2-0.8-0.6
					c0-0.6,0.5-0.8,1.5-0.8c4.3,0,10.3,0.3,10.8,0.3c1,0,8.3-0.3,11.2-0.3c6,0,12.4,0.6,17.4,4.2c2.4,1.7,6.6,6.4,6.6,12.9
					c0,7-3,14.1-11.5,22c7.8,10,14.3,18.5,19.8,24.4c5.1,5.4,9.2,6.5,11.6,6.9c1.8,0.3,3.1,0.3,3.7,0.3c0.5,0,0.9,0.3,0.9,0.6
					c0,0.6-0.6,0.8-2.3,0.8h-6.8c-5.3,0-7.7-0.5-10.2-1.8c-4.1-2.2-7.4-6.9-12.9-14c-4-5.2-8.5-11.6-10.4-14.1
					c-0.4-0.4-0.7-0.6-1.2-0.6L163,66.8c-0.5,0-0.7,0.3-0.7,0.8v2.3c0,9.1,0,16.7,0.5,20.7c0.3,2.8,0.9,4.9,3.7,5.2
					c1.3,0.2,3.4,0.4,4.3,0.4c0.6,0,0.8,0.3,0.8,0.6c0,0.5-0.5,0.8-1.5,0.8c-5.2,0-11.2-0.3-11.7-0.3c-0.1,0-6.1,0.3-9,0.3
					c-1,0-1.5-0.2-1.5-0.8c0-0.3,0.2-0.6,0.8-0.6c0.9,0,2-0.2,2.9-0.4c1.9-0.4,2.4-2.5,2.8-5.2c0.5-4,0.5-11.5,0.5-20.7V53.1z
					 M162.3,61.4c0,0.5,0.2,0.9,0.7,1.1c1.4,0.9,5.8,1.5,10,1.5c2.3,0,5-0.3,7.1-1.8c3.3-2.3,5.8-7.4,5.8-14.7
					c0-11.9-6.3-19-16.5-19c-2.9,0-5.4,0.3-6.4,0.6c-0.5,0.2-0.8,0.6-0.8,1.1V61.4z"/>
			</g>
			<g>
				<path d="M222.7,53.1c0-14.9,0-17.5-0.2-20.6c-0.2-3.2-1-4.8-4.1-5.4c-0.8-0.2-2.4-0.3-3.2-0.3c-0.4,0-0.8-0.2-0.8-0.6
					c0-0.6,0.5-0.8,1.5-0.8c4.3,0,10.3,0.3,10.8,0.3c1.1,0,7.1-0.3,12.9-0.3c9.4,0,26.8-0.9,38.2,10.9c4.8,5,9.2,12.9,9.2,24.2
					c0,12-5,21.2-10.3,26.8c-4.1,4.3-12.7,10.9-28.8,10.9c-4.1,0-9.1-0.3-13.2-0.6c-4.2-0.3-7.4-0.6-7.9-0.6c-0.2,0-1.8,0-3.8,0.1
					c-1.9,0-4.1,0.2-5.5,0.2c-1,0-1.5-0.2-1.5-0.8c0-0.3,0.2-0.6,0.8-0.6c0.9,0,2-0.2,2.9-0.4c1.9-0.4,2.4-2.5,2.8-5.2
					c0.5-4,0.5-11.5,0.5-20.7V53.1z M230.7,63.4c0,10.1,0.1,18.9,0.2,20.7c0.1,2.4,0.3,6.2,1,7.2c1.2,1.8,5,3.8,16.2,3.8
					c8.9,0,17-3.2,22.7-8.9c5-4.9,7.6-14,7.6-22.8c0-12.1-5.2-19.9-9.1-24c-9-9.4-19.8-10.8-31.1-10.8c-1.9,0-5.4,0.3-6.2,0.7
					c-0.9,0.4-1.1,0.9-1.1,1.9c-0.1,3.2-0.1,12.9-0.1,20.3V63.4z"/>
			</g>
			<g>
				<path d="M299.5,53.1c0-14.9,0-17.5-0.2-20.6c-0.2-3.2-1-4.8-4.1-5.4c-0.8-0.2-2.4-0.3-3.2-0.3c-0.4,0-0.8-0.2-0.8-0.6
					c0-0.6,0.5-0.8,1.5-0.8c2.2,0,4.8,0,6.9,0.1l3.9,0.2c0.7,0,19.6,0,21.8-0.1c1.8-0.1,3.3-0.3,4.1-0.5c0.5-0.1,0.9-0.5,1.3-0.5
					c0.3,0,0.4,0.4,0.4,0.9c0,0.7-0.5,1.8-0.8,4.5c-0.1,1-0.3,5.1-0.5,6.3c-0.1,0.5-0.3,1-0.7,1c-0.6,0-0.8-0.5-0.8-1.2
					c0-0.7-0.1-2.3-0.6-3.4c-0.7-1.5-1.6-2.7-6.8-3.2c-1.6-0.2-12-0.3-13-0.3c-0.4,0-0.6,0.3-0.6,1v26.3c0,0.7,0.1,1,0.6,1
					c1.2,0,12.9,0,15.1-0.2c2.3-0.2,3.6-0.4,4.5-1.3c0.7-0.8,1-1.2,1.4-1.2c0.3,0,0.5,0.2,0.5,0.8s-0.5,2.2-0.8,5.3
					c-0.2,1.9-0.4,5.4-0.4,6.1c0,0.8,0,1.8-0.7,1.8c-0.5,0-0.7-0.4-0.7-0.9c0-1,0-1.9-0.4-3.1c-0.4-1.3-1.2-3-5-3.3
					c-2.6-0.3-12-0.5-13.6-0.5c-0.5,0-0.7,0.3-0.7,0.7v8.4c0,3.2-0.1,14.3,0,16.3c0.3,6.6,1.7,7.8,11,7.8c2.5,0,6.7,0,9.1-1
					c2.5-1,3.6-3,4.3-6.9c0.2-1,0.4-1.4,0.9-1.4c0.6,0,0.6,0.8,0.6,1.4c0,0.8-0.8,7.2-1.2,9.2c-0.7,2.5-1.4,2.5-5.1,2.5
					c-7.1,0-12.4-0.2-16.1-0.3c-3.7-0.2-6-0.3-7.4-0.3c-0.2,0-1.8,0-3.8,0.1c-1.9,0-4.1,0.2-5.5,0.2c-1,0-1.5-0.2-1.5-0.8
					c0-0.3,0.2-0.6,0.8-0.6c0.9,0,2-0.2,2.9-0.4c1.9-0.4,2.4-2.5,2.8-5.2c0.5-4,0.5-11.5,0.5-20.7V53.1z"/>
			</g>
			<g>
				<path d="M356.3,84.5c0.2,7.8,1.1,10.3,3.7,11c1.8,0.5,3.9,0.6,4.8,0.6c0.5,0,0.8,0.2,0.8,0.6c0,0.6-0.6,0.8-1.7,0.8
					c-5.4,0-9.2-0.3-10.1-0.3c-0.9,0-4.9,0.3-9.1,0.3c-1,0-1.5-0.1-1.5-0.8c0-0.4,0.3-0.6,0.8-0.6c0.8,0,2.5-0.1,3.9-0.6
					c2.4-0.7,2.9-3.4,2.9-12.1l0.1-54.6c0-3.7,0.3-4.8,1-4.8c0.8,0,2.4,2.1,3.3,3c1.4,1.6,15.6,16.9,30.3,32.7
					c9.4,10.1,19.8,21.7,22.8,24.8l-0.8-38.4c0,0,1.8-7.8,2.8-7.8c1,0,2.6,8,2.6,8l-0.2,44.9c0,6.3-0.2,6.8-0.9,6.8
					c-0.8,0-1.9-1-7-6.1c-1-1-14.8-14.9-24.8-25.8c-11-11.9-21.8-23.9-24.8-27.3L356.3,84.5z"/>
			</g>
		</g>
		<g>
			<path d="M23.7,185.4c-1.3-0.7-1.4-1-1.4-3.6c0-4.8,0.4-8.6,0.5-10.1c0.1-1,0.3-1.5,0.8-1.5c0.6,0,0.7,0.3,0.7,1
				c0,0.9,0,2.2,0.3,3.5c1.4,7,7.7,9.7,14.1,9.7c9.1,0,13.6-6.6,13.6-12.7c0-6.6-2.8-10.4-10.9-17.1l-4.3-3.5
				c-10.1-8.3-12.4-14.2-12.4-20.7c0-10.2,7.6-17.1,19.7-17.1c3.7,0,6.5,0.4,8.9,1c1.8,0.4,2.6,0.5,3.3,0.5c0.8,0,1,0.2,1,0.7
				s-0.4,3.6-0.4,10.1c0,1.5-0.2,2.2-0.7,2.2c-0.6,0-0.7-0.5-0.8-1.2c-0.1-1.1-0.7-3.7-1.2-4.8c-0.6-1-3.1-5-11.9-5
				c-6.6,0-11.7,4.1-11.7,11c0,5.4,2.5,8.9,11.6,16l2.7,2.1c11.2,8.9,13.9,14.8,13.9,22.4c0,3.9-1.5,11.1-8.1,15.8
				c-4.1,2.9-9.2,4-14.4,4C31.9,188,27.6,187.3,23.7,185.4z"/>
		</g>
		<g>
			<path d="M100.5,159.1c0,9.1,0,16.7,0.5,20.7c0.3,2.8,0.9,4.9,3.7,5.2c1.3,0.2,3.4,0.4,4.3,0.4c0.6,0,0.8,0.3,0.8,0.6
				c0,0.5-0.5,0.8-1.5,0.8c-5.2,0-11.2-0.3-11.7-0.3c-0.5,0-6.5,0.3-9.3,0.3c-1,0-1.5-0.2-1.5-0.8c0-0.3,0.2-0.6,0.8-0.6
				c0.9,0,2-0.2,2.9-0.4c1.9-0.4,2.4-2.5,2.8-5.2c0.5-4,0.5-11.5,0.5-20.7v-40.3L78.4,119c-5.9,0.1-8.2,0.8-9.7,3
				c-1,1.6-1.3,2.3-1.6,3c-0.3,0.8-0.6,1-1,1c-0.3,0-0.5-0.3-0.5-0.9c0-1,1.9-9.1,2.1-9.9c0.2-0.6,0.6-1.8,1-1.8
				c0.7,0,1.6,1,4.2,1.1c2.8,0.3,6.4,0.5,7.5,0.5h35.7c3,0,5.2-0.2,6.8-0.5c1.4-0.2,2.3-0.5,2.7-0.5c0.5,0,0.5,0.6,0.5,1.1
				c0,2.9-0.3,9.4-0.3,10.5c0,0.9-0.3,1.2-0.7,1.2c-0.5,0-0.7-0.3-0.8-1.6l-0.1-1c-0.3-2.9-2.6-5-11.7-5.2l-12-0.2V159.1z"/>
		</g>
		<g>
			<path d="M163.1,113.4c21.4,0,37.4,13.5,37.4,35.7c0,21.3-15,38.9-38,38.9c-26.1,0-36.9-20.3-36.9-37.4
				C125.6,135.2,136.9,113.4,163.1,113.4z M165.1,184.4c8.6,0,26.3-5,26.3-32.7c0-22.8-13.9-35.1-28.9-35.1
				c-15.9,0-27.8,10.5-27.8,31.3C134.7,170.1,148,184.4,165.1,184.4z"/>
		</g>
		<g>
			<path d="M211.2,142.3c0-14.9,0-17.5-0.2-20.6c-0.2-3.2-1-4.8-4.1-5.4c-0.8-0.2-2.4-0.3-3.2-0.3c-0.4,0-0.8-0.2-0.8-0.6
				c0-0.6,0.5-0.8,1.5-0.8c4.3,0,10.3,0.3,10.8,0.3c1,0,8.3-0.3,11.2-0.3c6,0,12.4,0.6,17.4,4.2c2.4,1.7,6.6,6.4,6.6,12.9
				c0,7-3,14.1-11.5,22c7.8,10,14.3,18.5,19.8,24.4c5.1,5.4,9.2,6.5,11.6,6.9c1.8,0.3,3.1,0.3,3.7,0.3c0.5,0,0.9,0.3,0.9,0.6
				c0,0.6-0.6,0.8-2.3,0.8h-6.8c-5.3,0-7.7-0.5-10.2-1.8c-4.1-2.2-7.4-6.9-12.9-14c-4-5.2-8.5-11.6-10.4-14.1
				c-0.4-0.4-0.7-0.6-1.2-0.6l-11.7-0.2c-0.5,0-0.7,0.3-0.7,0.8v2.3c0,9.1,0,16.7,0.5,20.7c0.3,2.8,0.9,4.9,3.7,5.2
				c1.3,0.2,3.4,0.4,4.3,0.4c0.6,0,0.8,0.3,0.8,0.6c0,0.5-0.5,0.8-1.5,0.8c-5.2,0-11.2-0.3-11.7-0.3c-0.1,0-6.1,0.3-8.9,0.3
				c-1,0-1.5-0.2-1.5-0.8c0-0.3,0.2-0.6,0.8-0.6c0.9,0,2-0.2,2.9-0.4c1.9-0.4,2.4-2.5,2.8-5.2c0.5-4,0.5-11.5,0.5-20.7V142.3z
				 M218.8,150.6c0,0.5,0.2,0.9,0.7,1.1c1.4,0.9,5.8,1.5,10,1.5c2.3,0,5-0.3,7.1-1.8c3.3-2.3,5.8-7.4,5.8-14.7
				c0-11.9-6.3-19-16.5-19c-2.9,0-5.4,0.3-6.4,0.6c-0.5,0.2-0.8,0.6-0.8,1.1V150.6z"/>
		</g>
		<g>
			<path d="M291,159.1c0,9.1,0,16.7,0.5,20.7c0.3,2.8,0.9,4.9,3.7,5.2c1.3,0.2,3.4,0.4,4.3,0.4c0.6,0,0.8,0.3,0.8,0.6
				c0,0.5-0.5,0.8-1.5,0.8c-5.2,0-11.2-0.3-11.7-0.3s-6.5,0.3-9.3,0.3c-1,0-1.5-0.2-1.5-0.8c0-0.3,0.2-0.6,0.8-0.6
				c0.9,0,2-0.2,2.9-0.4c1.9-0.4,2.4-2.5,2.8-5.2c0.5-4,0.5-11.5,0.5-20.7v-16.8c0-14.9,0-17.5-0.2-20.6c-0.2-3.2-1.1-4.9-3.2-5.3
				c-1-0.3-2.3-0.4-3-0.4c-0.4,0-0.8-0.2-0.8-0.6c0-0.6,0.5-0.8,1.5-0.8c3.1,0,9.1,0.3,9.6,0.3s6.5-0.3,9.3-0.3c1,0,1.5,0.2,1.5,0.8
				c0,0.4-0.4,0.6-0.8,0.6c-0.7,0-1.2,0.1-2.4,0.3c-2.6,0.5-3.3,2.1-3.5,5.4c-0.2,3-0.2,5.7-0.2,20.6V159.1z"/>
		</g>
		<g>
			<path d="M319.2,142.3c0-14.9,0-17.5-0.2-20.6c-0.2-3.2-1-4.8-4.1-5.4c-0.8-0.2-2.4-0.3-3.2-0.3c-0.4,0-0.8-0.2-0.8-0.6
				c0-0.6,0.5-0.8,1.5-0.8c2.2,0,4.8,0,6.9,0.1l3.9,0.2c0.7,0,19.6,0,21.8-0.1c1.8-0.1,3.3-0.3,4.1-0.5c0.5-0.1,0.9-0.5,1.3-0.5
				c0.3,0,0.4,0.4,0.4,0.9c0,0.7-0.5,1.8-0.8,4.5c-0.1,1-0.3,5.1-0.5,6.3c-0.1,0.5-0.3,1-0.7,1c-0.6,0-0.8-0.5-0.8-1.2
				c0-0.7-0.1-2.3-0.6-3.4c-0.7-1.5-1.6-2.7-6.8-3.2c-1.6-0.2-12-0.3-13-0.3c-0.4,0-0.6,0.3-0.6,1v26.3c0,0.7,0.1,1,0.6,1
				c1.2,0,12.9,0,15.1-0.2c2.3-0.2,3.6-0.4,4.5-1.3c0.7-0.8,1-1.2,1.4-1.2c0.3,0,0.5,0.2,0.5,0.8c0,0.6-0.5,2.2-0.8,5.3
				c-0.2,1.9-0.4,5.4-0.4,6.1c0,0.8,0,1.8-0.7,1.8c-0.5,0-0.7-0.4-0.7-0.9c0-1,0-1.9-0.4-3.1c-0.4-1.3-1.2-3-5-3.3
				c-2.6-0.3-12-0.5-13.6-0.5c-0.5,0-0.7,0.3-0.7,0.7v8.4c0,3.2-0.1,14.3,0,16.3c0.3,6.6,1.7,7.8,11,7.8c2.5,0,6.7,0,9.1-1
				c2.5-1,3.6-3,4.3-6.9c0.2-1,0.4-1.4,0.9-1.4c0.6,0,0.6,0.8,0.6,1.4c0,0.8-0.8,7.2-1.2,9.2c-0.7,2.5-1.4,2.5-5.1,2.5
				c-7.1,0-12.4-0.2-16.1-0.3c-3.7-0.2-6-0.3-7.4-0.3c-0.2,0-1.8,0-3.8,0.1c-1.9,0-4.1,0.2-5.5,0.2c-1,0-1.5-0.2-1.5-0.8
				c0-0.3,0.2-0.6,0.8-0.6c0.9,0,2-0.2,2.9-0.4c1.9-0.4,2.4-2.5,2.8-5.2c0.5-4,0.5-11.5,0.5-20.7V142.3z"/>
		</g>
		<g>
			<path d="M367.4,185.4c-1.3-0.7-1.4-1-1.4-3.6c0-4.8,0.4-8.6,0.5-10.1c0.1-1,0.3-1.5,0.8-1.5c0.6,0,0.7,0.3,0.7,1
				c0,0.9,0,2.2,0.3,3.5c1.4,7,7.7,9.7,14.1,9.7c9.1,0,13.6-6.6,13.6-12.7c0-6.6-2.8-10.4-10.9-17.1l-4.3-3.5
				c-10.1-8.3-12.4-14.2-12.4-20.7c0-10.2,7.6-17.1,19.7-17.1c3.7,0,6.5,0.4,8.9,1c1.8,0.4,2.6,0.5,3.3,0.5c0.8,0,1,0.2,1,0.7
				s-0.4,3.6-0.4,10.1c0,1.5-0.2,2.2-0.7,2.2c-0.6,0-0.7-0.5-0.8-1.2c-0.1-1.1-0.7-3.7-1.2-4.8c-0.6-1-3.1-5-11.9-5
				c-6.6,0-11.7,4.1-11.7,11c0,5.4,2.5,8.9,11.6,16l2.7,2.1c11.2,8.9,13.9,14.8,13.9,22.4c0,3.9-1.5,11.1-8.1,15.8
				c-4.1,2.9-9.2,4-14.4,4C375.7,188,371.3,187.3,367.4,185.4z"/>
		</g>
		<g>
			<path d="M420,25c1.9-1.9,4-2.9,6.4-4.1c3.2-1.6,5.4-3.1,8.9-4.3c2.2-0.8,5.6-2.8,6-5.2c-1.4,9.5-7.9,18.2-16.6,22.2
				c-2,0.9-9.7,2.7-11.9,3.3C412.4,35.1,418.2,26.9,420,25z"/>
		</g>
		<g>
			<path d="M410.8,41.2c0-0.6-1.4-2-1.8-2.4c-2-2.6-4.1-5.4-6.9-7.1c-3.7-2.3-7.7-4.6-10-8.5c-2.2-3.8-2.1-8.9,0.3-12.6
				c-0.5,0.7,2.9,4.8,3.4,5.4c2,2.4,4.7,4.1,7.1,6.1c2,1.7,3.5,3.8,4.6,6.2C409.4,32.3,410.7,36.7,410.8,41.2z"/>
		</g>
		<g>
			<path d="M439.1,45c-2.2-0.4-3.3-2.7-4.8-4.4c-2.4-2.7-6.1-4.1-9.7-4.1s-7.2,1.2-10.4,2.9c1.6,2.1,3.2,4.3,5.6,5.5
				c2.1,1,4.5,1.1,6.8,0.9c2.3-0.2,4.6-0.7,6.9-0.9C435.3,44.8,437.3,44.7,439.1,45z"/>
		</g>
		<g>
			<path d="M410.3,26.6c-0.6-1.8-1.5-3.5-2-5.3c-0.9-3.9,0.5-8.1,3-11.2s5.9-5.4,9.4-7.3c-0.9,2.4-0.2,5,0,7.5
				c0.4,4.5-1,9.2-3.7,12.8c-0.9,1.1-1.9,2.2-2.6,3.4c-1.1,1.7-1.6,3.7-2.2,5.6C410.8,31.3,410.8,28.1,410.3,26.6z"/>
		</g>
	</g>
	<g>
		<g>
			<g>
				<path class="st0" d="M56.8,71.9c0-7.7-0.5-8.8-4.3-9.8c-0.8-0.2-2.4-0.3-3.2-0.3c-0.4,0-0.8-0.2-0.8-0.6c0-0.6,0.5-0.8,1.5-0.8
					c4.3,0,10.3,0.3,10.8,0.3c0.5,0,6.5-0.3,9.3-0.3c1,0,1.5,0.2,1.5,0.8c0,0.4-0.4,0.6-0.8,0.6c-0.7,0-1.2,0.1-2.4,0.3
					c-2.6,0.5-3.3,2.1-3.5,5.4c-0.2,3-0.2,5.9-0.2,9.9V88c0,4.3-0.1,4.5-1.2,5.1c-6.1,3.2-14.7,4.3-20.2,4.3
					c-7.2,0-20.8-1-31.3-10.2C6.2,82.2,0.7,72,0.7,60.1c0-15.2,7.4-26,15.9-31.3c8.6-5.3,18-6,25.3-6c6,0,12.8,1.2,14.6,1.6
					c2,0.5,5.3,0.9,7.7,1c1,0.1,1.1,0.5,1.1,0.9c0,1.3-0.7,4-0.7,13.5c0,1.5-0.2,2-0.9,2c-0.5,0-0.6-0.6-0.7-1.4
					c-0.1-1.3-0.6-4-2-6.3c-2.4-3.6-10.1-7.7-22.4-7.7c-6,0-13.1,0.6-20.4,6.3C12.9,37,9,45.7,9,56.8c0,13.4,6.8,23.1,10.1,26.4
					c7.5,7.3,16.2,10.2,24.9,10.2c3.4,0,8.4-0.6,10.9-2c1.2-0.7,1.9-1.7,1.9-3.3V71.9z"/>
				<path class="st1" d="M43.3,98.1c-13.2,0-23.9-3.5-31.8-10.4C6.2,83.2,0,73.1,0,60.1c0-13.6,6.1-25.5,16.2-31.9
					c8.7-5.4,18.3-6.1,25.7-6.1c6.9,0,14.4,1.6,14.7,1.6c1.8,0.4,5.1,0.8,7.6,0.9c1.6,0.2,1.8,1,1.8,1.5c0,0.4,0,0.9-0.1,1.6
					c-0.2,1.8-0.5,5.1-0.5,12c0,1.1,0,2.7-1.5,2.7c-1.1,0-1.3-1.2-1.3-2c0-0.6-0.3-3.5-1.9-6C58.2,30.9,50.4,27,38.8,27
					c-6.3,0-13.1,0.7-20,6.1c-5.7,4.6-9.2,13.4-9.2,23.6c0,12.9,6.5,22.6,9.9,25.9c6.8,6.6,15,10,24.5,10c3.5,0,8.2-0.6,10.5-1.9
					c1.1-0.6,1.6-1.4,1.6-2.7V71.9c0-7.9-0.5-8.3-3.8-9.2c-0.7-0.2-2.2-0.3-3.1-0.3c-0.8,0-1.4-0.5-1.4-1.2c0-1.4,1.7-1.4,2.2-1.4
					c3.2,0,7.5,0.2,9.5,0.2c0.7,0,1.1,0,1.3,0c0.1,0,0.7,0,1.6-0.1c2.1-0.1,5.7-0.2,7.8-0.2c0.5,0,2.2,0,2.2,1.4
					c0,0.7-0.6,1.2-1.4,1.2c-0.6,0-1.2,0.1-2.3,0.3c-2.1,0.4-2.8,1.5-3,4.8c-0.2,3-0.2,5.9-0.2,9.9V88c0,4.3-0.1,4.8-1.6,5.7
					C57.8,97,49.3,98.1,43.3,98.1z M41.9,23.5c-7.2,0-16.6,0.7-25,5.9C7.2,35.5,1.4,47,1.4,60.1c0,12.5,6,22.2,11.1,26.6
					c7.6,6.6,18,10,30.9,10c5.8,0,14-1.1,19.9-4.2c0.8-0.5,0.9-0.5,0.9-4.5V77.4c0-4,0-6.9,0.2-9.9c0.2-3.3,0.9-5.5,4.1-6.1
					c0.8-0.1,1.4-0.2,1.9-0.3c0,0-0.1,0-0.1,0c-2,0-5.6,0.1-7.7,0.2c-0.9,0-1.5,0.1-1.6,0.1c-0.1,0-0.6,0-1.3,0
					c-2-0.1-6.1-0.2-9.3-0.2c0.9,0,1.9,0.1,2.5,0.3c4.4,1.2,4.8,2.9,4.8,10.5V88c0,1.8-0.8,3.1-2.3,3.9C52.7,93.4,47.8,94,44,94
					c-9.8,0-18.4-3.5-25.4-10.4C14.8,80,8.3,70.1,8.3,56.8c0-10.7,3.6-19.9,9.7-24.7c7.2-5.7,14.2-6.4,20.8-6.4
					c12.2,0,20.3,4,22.9,8c1.4,2.2,2,4.8,2.1,6.6c0,0.1,0,0.4,0.1,0.7c0-0.2,0.1-0.5,0.1-1.2c0-7,0.4-10.3,0.5-12.1
					c0.1-0.6,0.1-1.1,0.1-1.4c0,0-0.1-0.1-0.5-0.2c-2.2-0.1-5.6-0.4-7.8-1C53.7,24.5,47.3,23.5,41.9,23.5z"/>
			</g>
			<g>
				<path class="st0" d="M103.5,26.5c1.1-3.1,1.5-3.7,2.1-3.7c0.6,0,1,0.5,2.1,3.4c1.4,3.6,16.4,42.9,22.2,57.4
					c3.4,8.5,6.2,10,8.2,10.6c1.4,0.5,2.9,0.6,3.8,0.6c0.6,0,1,0.1,1,0.6c0,0.6-0.9,0.8-1.9,0.8c-1.4,0-8.4,0-14.9-0.2
					c-1.8-0.1-2.9-0.1-2.9-0.7c0-0.4,0.3-0.6,0.7-0.7c0.6-0.2,1.1-1,0.6-2.6l-8.9-23.4c-0.2-0.4-0.4-0.6-0.9-0.6H94.2
					c-0.5,0-0.8,0.3-1,0.8l-5.7,16.9c-0.9,2.4-1.3,4.7-1.3,6.4c0,1.9,2,2.8,3.6,2.8h1c0.7,0,1,0.2,1,0.6c0,0.6-0.6,0.8-1.4,0.8
					c-2.3,0-6.4-0.3-7.4-0.3c-1,0-6.3,0.3-10.8,0.3c-1.2,0-1.8-0.2-1.8-0.8c0-0.4,0.4-0.6,0.9-0.6c0.7,0,2-0.1,2.8-0.2
					c4.4-0.6,6.3-4.2,8-8.9L103.5,26.5z M113.4,64.6c0.5,0,0.5-0.3,0.4-0.7l-9-25.7c-0.5-1.4-1-1.4-1.4,0L94.9,64
					c-0.2,0.5,0,0.7,0.3,0.7H113.4z"/>
				<path class="st1" d="M140.9,96.8c-5.4,0-10.7-0.1-15-0.2l-0.5,0c-1.8-0.1-3.1-0.2-3.1-1.3c0-0.3,0.1-1.1,1.2-1.3
					c0,0,0.1-0.1,0.2-0.2c0.1-0.2,0.2-0.6-0.1-1.4l-8.8-23.4c-0.1-0.1-0.1-0.2-0.1-0.2c0,0,0,0-0.1,0H94.2c-0.1,0-0.2,0-0.3,0.3
					l-5.7,16.8c-0.8,2.3-1.3,4.5-1.3,6.2c0,1.5,1.8,2.1,2.9,2.1h1c1.5,0,1.6,0.9,1.6,1.3c0,0.5-0.3,1.4-2.1,1.4
					c-1.4,0-3.4-0.1-5-0.2c-1.1-0.1-2-0.1-2.4-0.1c-0.3,0-1.1,0-2.2,0.1c-2.2,0.1-5.6,0.2-8.6,0.2c-0.7,0-2.5,0-2.5-1.4
					c0-0.7,0.6-1.3,1.5-1.3c0.6,0,1.9-0.1,2.7-0.2c3.8-0.5,5.6-3.5,7.4-8.5l21.6-59.1c1.1-3.1,1.6-4.2,2.7-4.2
					c1.1,0,1.6,0.9,2.7,3.9c0.4,1,1.9,5,4,10.5c5.2,13.7,14,36.6,18.1,46.9c3.2,7.9,5.7,9.6,7.7,10.2c1.4,0.5,2.7,0.5,3.6,0.5
					c1.3,0,1.6,0.7,1.6,1.3C143.5,96,143.1,96.8,140.9,96.8z M124.2,95.2c0.4,0,0.9,0.1,1.3,0.1l0.4,0c4.2,0.1,9.5,0.2,14.9,0.2
					c0,0,0.1,0,0.1,0c-0.9-0.1-2-0.2-3.2-0.6c-2.3-0.7-5.2-2.5-8.6-11c-4.1-10.3-12.9-33.2-18.1-46.9c-2.1-5.5-3.6-9.5-4-10.5
					c-0.7-1.9-1.2-2.9-1.4-3c-0.4,0.2-1.2,2.4-1.5,3.3l0,0L82.5,85.9C81,90.3,79,94.6,74,95.3c-0.6,0.1-1.4,0.1-2,0.2
					c0,0,0.1,0,0.1,0c3,0,6.3-0.1,8.5-0.2c1.1,0,1.9-0.1,2.2-0.1c0.4,0,1.3,0,2.5,0.1c1.2,0.1,2.6,0.1,3.8,0.2
					c-1.9-0.2-3.6-1.4-3.6-3.4c0-1.8,0.5-4.1,1.4-6.6l5.7-16.8c0.4-1,1.1-1.2,1.6-1.2h20.5c0.9,0,1.2,0.5,1.5,0.9l0,0.1l8.9,23.4
					c0.5,1.2,0.3,2,0,2.5C124.9,94.7,124.6,95,124.2,95.2z M123.8,95.3L123.8,95.3L123.8,95.3z M113.4,65.3H95.2
					c-0.4,0-0.7-0.2-0.9-0.4c-0.1-0.2-0.3-0.6,0-1.2l8.4-25.7c0.2-0.5,0.5-1.5,1.4-1.5c0.8,0,1.2,1.1,1.4,1.5l9,25.7
					c0.1,0.3,0.2,0.8-0.1,1.2C114.2,65.1,113.9,65.3,113.4,65.3z M95.7,63.9h17.4l-9-25.5c0-0.1-0.1-0.1-0.1-0.2
					c0,0.1,0,0.1-0.1,0.2L95.7,63.9z"/>
			</g>
			<g>
				<path class="st0" d="M152.6,51.8c0-14.9,0-17.5-0.2-20.6c-0.2-3.2-1-4.8-4.1-5.4c-0.8-0.2-2.4-0.3-3.2-0.3
					c-0.4,0-0.8-0.2-0.8-0.6c0-0.6,0.5-0.8,1.5-0.8c4.3,0,10.3,0.3,10.8,0.3c1,0,8.3-0.3,11.2-0.3c6,0,12.4,0.6,17.4,4.2
					c2.4,1.7,6.6,6.4,6.6,12.9c0,7-3,14.1-11.5,22c7.8,10,14.3,18.5,19.8,24.4c5.1,5.4,9.2,6.5,11.6,6.9c1.8,0.3,3.1,0.3,3.7,0.3
					c0.5,0,0.9,0.3,0.9,0.6c0,0.6-0.6,0.8-2.3,0.8h-6.8c-5.3,0-7.7-0.5-10.2-1.8c-4.1-2.2-7.4-6.9-12.9-14
					c-4-5.2-8.5-11.6-10.4-14.1c-0.4-0.4-0.7-0.6-1.2-0.6l-11.7-0.2c-0.5,0-0.7,0.3-0.7,0.8v2.3c0,9.1,0,16.7,0.5,20.7
					c0.3,2.8,0.9,4.9,3.7,5.2c1.3,0.2,3.4,0.4,4.3,0.4c0.6,0,0.8,0.3,0.8,0.6c0,0.5-0.5,0.8-1.5,0.8c-5.2,0-11.2-0.3-11.7-0.3
					c-0.1,0-6.1,0.3-9,0.3c-1,0-1.5-0.2-1.5-0.8c0-0.3,0.2-0.6,0.8-0.6c0.9,0,2-0.2,2.9-0.4c1.9-0.4,2.4-2.5,2.8-5.2
					c0.5-4,0.5-11.5,0.5-20.7V51.8z M160.3,60c0,0.5,0.2,0.9,0.7,1.1c1.4,0.9,5.8,1.5,10,1.5c2.3,0,5-0.3,7.1-1.8
					c3.3-2.3,5.8-7.4,5.8-14.7c0-11.9-6.3-19-16.5-19c-2.9,0-5.4,0.3-6.4,0.6c-0.5,0.2-0.8,0.6-0.8,1.1V60z"/>
				<path class="st1" d="M214,96.8h-6.8c-5.3,0-7.9-0.5-10.5-1.9c-3.9-2.1-7.1-6.3-11.9-12.6l-1.2-1.6c-2.3-3-4.8-6.5-6.8-9.2
					c-1.5-2-2.7-3.8-3.5-4.8c-0.3-0.3-0.4-0.3-0.7-0.3l-11.7-0.2c0,0,0,0,0,0.1v2.3c0,8.9,0,16.6,0.5,20.6c0.3,2.8,0.9,4.3,3.1,4.6
					c1.4,0.2,3.4,0.4,4.2,0.4c1,0,1.4,0.6,1.4,1.3c0,0.4-0.2,1.4-2.2,1.4c-4,0-8.5-0.2-10.6-0.2c-0.6,0-1,0-1.1,0l-0.4,0
					c-1.5,0.1-6.1,0.3-8.5,0.3c-0.5,0-2.2,0-2.2-1.4c0-0.6,0.4-1.3,1.4-1.3c0.7,0,1.7-0.1,2.7-0.4c1.4-0.3,1.8-1.8,2.2-4.7
					c0.5-3.9,0.5-11.6,0.5-20.6V51.8c0-14.8,0-17.5-0.2-20.5c-0.2-3.2-1-4.3-3.6-4.8c-0.7-0.2-2.3-0.3-3.1-0.3
					c-0.8,0-1.4-0.5-1.4-1.3c0-1.4,1.7-1.4,2.2-1.4c3.2,0,7.5,0.2,9.5,0.2c0.7,0,1.1,0,1.3,0c0.4,0,1.6,0,3.2-0.1
					c2.6-0.1,6.2-0.2,8-0.2c5.8,0,12.5,0.5,17.8,4.3c2.5,1.8,6.9,6.7,6.9,13.5c0,7.8-3.6,14.8-11.3,22.1l2.4,3.1
					c6.5,8.4,12.1,15.6,17,20.7c4.9,5.1,8.7,6.2,11.2,6.6c1.8,0.3,3.1,0.3,3.6,0.3c0.8,0,1.5,0.6,1.5,1.3
					C217,96.8,215.2,96.8,214,96.8z M160.9,64.8l11.7,0.2c0.8,0,1.2,0.3,1.7,0.8l0.1,0.1c0.8,1.1,2.1,2.8,3.6,4.9
					c2,2.8,4.5,6.2,6.8,9.2l1.2,1.6c4.7,6.2,7.8,10.3,11.4,12.2c2.4,1.3,4.8,1.7,9.9,1.7h6.8c0.1,0,0.1,0,0.2,0
					c-0.7,0-1.6-0.1-2.6-0.3c-2.7-0.4-6.9-1.6-12-7.1c-4.9-5.2-10.5-12.5-17.1-20.8l-3.2-4.1l0.5-0.4c7.7-7.1,11.3-13.9,11.3-21.5
					c0-6.2-4-10.7-6.3-12.4c-5-3.6-11.4-4.1-17-4.1c-1.8,0-5.4,0.1-8,0.2c-1.6,0.1-2.8,0.1-3.2,0.1c-0.1,0-0.6,0-1.3,0
					c-2-0.1-6.1-0.2-9.3-0.2c0.9,0,1.9,0.1,2.5,0.3c3.6,0.8,4.4,2.7,4.6,6c0.2,3.1,0.2,5.7,0.2,20.6v16.8c0,9.3,0,16.7-0.5,20.7
					c-0.3,2.2-0.7,5.3-3.3,5.8c-0.4,0.1-1.4,0.3-2.4,0.4c0,0,0.1,0,0.1,0c2.4,0,7-0.2,8.5-0.3c0.3,0,0.4,0,0.5,0c0.1,0,0.5,0,1.2,0
					c2.1,0.1,6.5,0.2,10.6,0.2c-1.1-0.1-2.6-0.2-3.6-0.4c-3.5-0.5-4-3.3-4.3-5.8c-0.5-4-0.5-11.4-0.5-20.7v-2.3
					C159.6,65.2,160.3,64.8,160.9,64.8z M170.9,63.4c-4.4,0-8.8-0.7-10.3-1.6c-0.7-0.4-1-1-1-1.7V28.9c0-0.8,0.4-1.5,1.2-1.8
					c1.1-0.3,3.6-0.6,6.6-0.6c10.6,0,17.1,7.6,17.1,19.7c0,6.9-2.3,12.6-6.1,15.2C176,63.2,173,63.4,170.9,63.4z M167.4,27.9
					c-2.7,0-5.3,0.3-6.2,0.5c-0.2,0.1-0.3,0.2-0.3,0.5V60c0,0.2,0.1,0.4,0.3,0.6c1.1,0.7,5.2,1.4,9.6,1.4c1.9,0,4.6-0.2,6.8-1.7
					c3.5-2.4,5.5-7.6,5.5-14.1C183.2,34.7,177.3,27.9,167.4,27.9z"/>
			</g>
			<g>
				<path class="st0" d="M220.6,51.8c0-14.9,0-17.5-0.2-20.6c-0.2-3.2-1-4.8-4.1-5.4c-0.8-0.2-2.4-0.3-3.2-0.3
					c-0.4,0-0.8-0.2-0.8-0.6c0-0.6,0.5-0.8,1.5-0.8c4.3,0,10.3,0.3,10.8,0.3c1.1,0,7.1-0.3,12.9-0.3c9.4,0,26.8-0.9,38.2,10.9
					c4.8,5,9.2,12.9,9.2,24.2c0,12-5,21.2-10.3,26.8c-4.1,4.3-12.7,10.9-28.8,10.9c-4.1,0-9.1-0.3-13.2-0.6
					c-4.2-0.3-7.4-0.6-7.9-0.6c-0.2,0-1.8,0-3.8,0.1c-1.9,0-4.1,0.2-5.5,0.2c-1,0-1.5-0.2-1.5-0.8c0-0.3,0.2-0.6,0.8-0.6
					c0.9,0,2-0.2,2.9-0.4c1.9-0.4,2.4-2.5,2.8-5.2c0.5-4,0.5-11.5,0.5-20.7V51.8z M228.6,62c0,10.1,0.1,18.9,0.2,20.7
					c0.1,2.4,0.3,6.2,1,7.2c1.2,1.8,5,3.8,16.2,3.8c8.9,0,17-3.2,22.7-8.9c5-4.9,7.6-14,7.6-22.8c0-12.1-5.2-19.9-9.1-24
					c-9-9.4-19.8-10.8-31.1-10.8c-1.9,0-5.4,0.3-6.2,0.7c-0.9,0.4-1.1,0.9-1.1,1.9c-0.1,3.2-0.1,12.9-0.1,20.3V62z"/>
				<path class="st1" d="M245.8,97.7c-3.4,0-7.8-0.2-13.3-0.6c-2.1-0.1-3.9-0.3-5.3-0.4c-1.3-0.1-2.3-0.2-2.5-0.2
					c-0.4,0-1.9,0-3.8,0.1c-1,0-2.1,0.1-3.1,0.1c-0.9,0-1.7,0.1-2.4,0.1c-0.5,0-2.2,0-2.2-1.4c0-0.6,0.4-1.3,1.4-1.3
					c0.7,0,1.7-0.1,2.7-0.4c1.4-0.3,1.8-1.8,2.2-4.7c0.5-3.9,0.5-11.6,0.5-20.6V51.8c0-14.8,0-17.5-0.2-20.5c-0.2-3.2-1-4.3-3.6-4.8
					c-0.7-0.2-2.3-0.3-3.1-0.3c-0.8,0-1.4-0.5-1.4-1.3c0-1.4,1.7-1.4,2.2-1.4c3.2,0,7.5,0.2,9.5,0.2c0.7,0,1.1,0,1.3,0
					c0.3,0,1.2,0,2.3-0.1c2.5-0.1,6.6-0.2,10.6-0.2c0.6,0,1.2,0,1.8,0c9.7-0.1,26-0.1,36.9,11.1c4.3,4.5,9.4,12.4,9.4,24.7
					c0,10.3-3.8,20.3-10.5,27.3C268.1,93.8,258,97.7,245.8,97.7z M224.6,95.2c0.3,0,1,0.1,2.6,0.2c1.4,0.1,3.2,0.2,5.3,0.4
					c5.4,0.4,9.9,0.6,13.2,0.6c11.8,0,21.6-3.7,28.4-10.7c3-3.2,10.1-12.2,10.1-26.4c0-11.8-4.9-19.4-9-23.7
					c-10.4-10.8-26.4-10.7-35.9-10.7c-0.6,0-1.2,0-1.8,0c-3.9,0-8.1,0.1-10.5,0.2c-1.1,0-2,0.1-2.3,0.1c-0.1,0-0.6,0-1.3,0
					c-2-0.1-6.1-0.2-9.3-0.2c0.9,0,1.9,0.1,2.5,0.3c3.6,0.8,4.4,2.7,4.6,6c0.2,3.1,0.2,5.7,0.2,20.6v16.8c0,9.3,0,16.7-0.5,20.7
					c-0.3,2.2-0.7,5.3-3.3,5.8c-0.4,0.1-1.4,0.3-2.4,0.4c0.6,0,1.5,0,2.5-0.1c1.1-0.1,2.1-0.1,3.2-0.1
					C222.6,95.2,224.2,95.2,224.6,95.2z M246,94.4c-9.4,0-14.9-1.3-16.7-4.1c-0.8-1.1-1-4.3-1.2-7.6c-0.1-1.7-0.2-10.2-0.2-20.7
					V50.2c0-7.2,0-17.1,0.1-20.3c0-1.3,0.4-2,1.5-2.5c0.9-0.5,4.7-0.7,6.5-0.7c12.7,0,23,1.9,31.6,11c3.5,3.7,9.3,11.7,9.3,24.5
					c0,9.6-3,18.5-7.8,23.2C263.4,91.1,255,94.4,246,94.4z M236,28.1c-2.1,0-5.3,0.3-5.9,0.6c-0.6,0.3-0.8,0.5-0.8,1.3
					c-0.1,3.2-0.1,13.1-0.1,20.3V62c0,10.2,0.1,18.9,0.2,20.6c0.1,1.5,0.2,5.9,0.9,6.9c1.1,1.6,4.7,3.5,15.6,3.5
					c8.6,0,16.7-3.2,22.2-8.7c4.5-4.4,7.4-13.2,7.4-22.3c0-12.3-5.6-20-9-23.5C258.4,29.9,248.4,28.1,236,28.1z"/>
			</g>
			<g>
				<path class="st0" d="M297.5,51.8c0-14.9,0-17.5-0.2-20.6c-0.2-3.2-1-4.8-4.1-5.4c-0.8-0.2-2.4-0.3-3.2-0.3
					c-0.4,0-0.8-0.2-0.8-0.6c0-0.6,0.5-0.8,1.5-0.8c2.2,0,4.8,0,6.9,0.1l3.9,0.2c0.7,0,19.6,0,21.8-0.1c1.8-0.1,3.3-0.3,4.1-0.5
					c0.5-0.1,0.9-0.5,1.3-0.5c0.3,0,0.4,0.4,0.4,0.9c0,0.7-0.5,1.8-0.8,4.5c-0.1,1-0.3,5.1-0.5,6.3c-0.1,0.5-0.3,1-0.7,1
					c-0.6,0-0.8-0.5-0.8-1.2c0-0.7-0.1-2.3-0.6-3.4c-0.7-1.5-1.6-2.7-6.8-3.2c-1.6-0.2-12-0.3-13-0.3c-0.4,0-0.6,0.3-0.6,1v26.3
					c0,0.7,0.1,1,0.6,1c1.2,0,12.9,0,15.1-0.2c2.3-0.2,3.6-0.4,4.5-1.3c0.7-0.8,1-1.2,1.4-1.2c0.3,0,0.5,0.2,0.5,0.8
					c0,0.6-0.5,2.2-0.8,5.3c-0.2,1.9-0.4,5.4-0.4,6.1c0,0.8,0,1.8-0.7,1.8c-0.5,0-0.7-0.4-0.7-0.9c0-1,0-1.9-0.4-3.1
					c-0.4-1.3-1.2-3-5-3.3c-2.6-0.3-12-0.5-13.6-0.5c-0.5,0-0.7,0.3-0.7,0.7v8.4c0,3.2-0.1,14.3,0,16.3c0.3,6.6,1.7,7.8,11,7.8
					c2.5,0,6.7,0,9.1-1c2.5-1,3.6-3,4.3-6.9c0.2-1,0.4-1.4,0.9-1.4c0.6,0,0.6,0.8,0.6,1.4c0,0.8-0.8,7.2-1.2,9.2
					c-0.7,2.5-1.4,2.5-5.1,2.5c-7.1,0-12.4-0.2-16.1-0.3c-3.7-0.2-6-0.3-7.4-0.3c-0.2,0-1.8,0-3.8,0.1c-1.9,0-4.1,0.2-5.5,0.2
					c-1,0-1.5-0.2-1.5-0.8c0-0.3,0.2-0.6,0.8-0.6c0.9,0,2-0.2,2.9-0.4c1.9-0.4,2.4-2.5,2.8-5.2c0.5-4,0.5-11.5,0.5-20.7V51.8z"/>
				<path class="st1" d="M325,97.1c-5.9,0-10.6-0.1-14-0.2l-2.1-0.1c-4-0.2-6.1-0.3-7.4-0.3c-0.4,0-1.9,0-3.8,0.1
					c-1,0-2.1,0.1-3.1,0.1c-0.9,0-1.7,0.1-2.4,0.1c-0.5,0-2.2,0-2.2-1.4c0-0.6,0.4-1.3,1.4-1.3c0.7,0,1.7-0.1,2.7-0.4
					c1.4-0.3,1.8-1.8,2.2-4.7c0.5-3.9,0.5-11.6,0.5-20.6V51.8c0-14.8,0-17.5-0.2-20.5c-0.2-3.2-1-4.3-3.6-4.8
					c-0.7-0.2-2.3-0.3-3.1-0.3c-0.8,0-1.4-0.5-1.4-1.3c0-1.4,1.7-1.4,2.2-1.4c2.2,0,4.8,0,6.9,0.1l3.9,0.2c0.8,0,19.6,0,21.7-0.1
					c1.6-0.1,3.2-0.3,4-0.5c0.1,0,0.3-0.1,0.4-0.2c0.3-0.1,0.6-0.3,1.1-0.3c0.3,0,1.1,0.1,1.1,1.5c0,0.3-0.1,0.7-0.2,1.3
					c-0.2,0.7-0.4,1.7-0.6,3.3c0,0.3-0.1,1.1-0.1,1.9c-0.1,1.6-0.2,3.6-0.4,4.4c-0.3,1.3-0.9,1.6-1.3,1.6c-0.5,0-1.4-0.2-1.4-1.9
					c0-0.7-0.1-2.2-0.5-3.2c-0.5-1.1-1-2.2-6.2-2.8c-1.5-0.2-11.2-0.3-12.8-0.3c0,0.1,0,0.1,0,0.3v26.3c0,0.1,0,0.2,0,0.3
					c0.1,0,0.1,0,0.2,0c6.2,0,13.2-0.1,14.8-0.2c2.3-0.2,3.4-0.4,4-1.1l0.2-0.2c0.7-0.8,1.1-1.3,1.8-1.3c0.2,0,1.2,0.1,1.2,1.4
					c0,0.3-0.1,0.6-0.2,1.2c-0.2,0.9-0.4,2.2-0.6,4.2c-0.2,2-0.4,5.4-0.4,6c0,0.8,0,2.5-1.3,2.5c-0.8,0-1.3-0.6-1.3-1.5
					c0-0.9,0-1.8-0.4-2.9c-0.4-1.3-1.2-2.5-4.4-2.9c-2.5-0.3-11.9-0.5-13.5-0.5l0,8.4c0,0.9,0,2.4,0,4.2c0,4.5-0.1,10.6,0,12.1
					c0.3,6,1.1,7.2,10.4,7.2c2.4,0,6.5,0,8.9-1c2.2-0.9,3.2-2.6,3.9-6.3c0.1-0.8,0.4-2,1.5-2c1.3,0,1.3,1.4,1.3,2.1
					c0,0.9-0.8,7.4-1.3,9.4C330,97.1,328.7,97.1,325,97.1z M301.5,95.2c1.4,0,3.4,0.1,7.5,0.3l2.1,0.1c3.4,0.1,8.1,0.2,14,0.2
					c3.8,0,4-0.1,4.5-2c0.5-1.9,1.2-8.4,1.2-9.1c0-0.1,0-0.2,0-0.3c0,0.1-0.1,0.2-0.1,0.4c-0.7,4.2-2,6.2-4.7,7.4
					c-2.6,1.1-6.9,1.1-9.4,1.1c-9.5,0-11.4-1.3-11.7-8.5c-0.1-1.5,0-7.6,0-12.1c0-1.8,0-3.3,0-4.2v-8.4c0-0.8,0.5-1.3,1.3-1.3
					c1.6,0,11.1,0.2,13.7,0.5c4.1,0.4,5.1,2.3,5.5,3.8c0.3,0.8,0.3,1.5,0.4,2.2c0-1,0.2-4.2,0.4-6c0.2-2,0.4-3.4,0.6-4.3
					c0.1-0.4,0.1-0.7,0.1-0.9c-0.2,0.2-0.4,0.4-0.5,0.6l-0.2,0.2c-1,1.2-2.6,1.4-4.9,1.6c-2.1,0.2-12.2,0.2-15.2,0.2
					c-1.2,0-1.2-1.2-1.2-1.6V28.8c0-1.5,0.9-1.6,1.2-1.6c0.7,0,11.4,0.1,13.1,0.3c5.1,0.6,6.4,1.7,7.3,3.6c0.6,1.5,0.6,3.5,0.6,3.7
					c0,0.1,0,0.2,0,0.3c0-0.1,0-0.2,0.1-0.3c0.1-0.7,0.2-2.7,0.3-4.2c0.1-0.9,0.1-1.7,0.1-2c0.2-1.6,0.4-2.7,0.6-3.4
					c0.1-0.4,0.2-0.8,0.2-1c0,0,0-0.1,0-0.1c0,0-0.1,0-0.1,0.1c-0.2,0.1-0.5,0.2-0.8,0.3c-0.8,0.2-2.4,0.4-4.2,0.5
					c-2.1,0.1-19.8,0.1-21.8,0.1l-3.9-0.2c-2-0.1-4.5-0.1-6.7-0.1c0.9,0,1.9,0.1,2.5,0.3c3.6,0.8,4.4,2.7,4.6,6
					c0.2,3.1,0.2,5.7,0.2,20.6v16.8c0,9.3,0,16.7-0.5,20.7c-0.3,2.2-0.7,5.3-3.3,5.8c-0.4,0.1-1.4,0.3-2.4,0.4c0.6,0,1.5,0,2.5-0.1
					c1.1-0.1,2.1-0.1,3.2-0.1C299.5,95.2,301,95.2,301.5,95.2z M291.2,95.5L291.2,95.5L291.2,95.5z"/>
			</g>
			<g>
				<path class="st0" d="M354.3,83.2c0.2,7.8,1.1,10.3,3.7,11c1.8,0.5,3.9,0.6,4.8,0.6c0.5,0,0.8,0.2,0.8,0.6c0,0.6-0.6,0.8-1.7,0.8
					c-5.4,0-9.2-0.3-10.1-0.3c-0.9,0-4.9,0.3-9.1,0.3c-1,0-1.5-0.1-1.5-0.8c0-0.4,0.3-0.6,0.8-0.6c0.8,0,2.5-0.1,3.9-0.6
					c2.4-0.7,2.9-3.4,2.9-12.1l0.1-54.6c0-3.7,0.3-4.8,1-4.8c0.8,0,2.4,2.1,3.3,3c1.4,1.6,15.6,16.9,30.3,32.7
					c9.4,10.1,19.8,21.7,22.8,24.8l-0.8-38.4c0,0,1.8-7.8,2.8-7.8s2.6,8,2.6,8L410.6,90c0,6.3-0.2,6.8-0.9,6.8c-0.8,0-1.9-1-7-6.1
					c-1-1-14.8-14.9-24.8-25.8c-11-11.9-21.8-23.9-24.8-27.3L354.3,83.2z"/>
				<path class="st1" d="M409.7,97.5c-1.1,0-2.1-1-7.4-6.3c-1-0.9-14.7-14.9-24.9-25.8c-9.8-10.6-19.4-21.3-23.6-25.9l1.2,43.8
					c0.2,8,1.2,9.8,3.2,10.4c2,0.5,4.3,0.5,4.6,0.5c1.1,0,1.4,0.7,1.4,1.3c0,1.4-1.7,1.4-2.4,1.4c-3.9,0-6.9-0.1-8.7-0.2
					c-0.7,0-1.1-0.1-1.4-0.1c-0.3,0-0.8,0-1.6,0.1c-1.7,0.1-4.6,0.2-7.6,0.2c-0.7,0-2.2,0-2.2-1.4c0-0.6,0.4-1.3,1.4-1.3
					c1,0,2.5-0.1,3.7-0.5c1.9-0.5,2.4-2.9,2.4-11.4l0.1-54.6c0-3.3,0.1-5.4,1.7-5.4c0.8,0,1.7,0.9,3,2.4c0.3,0.3,0.6,0.7,0.8,0.9
					c1.4,1.6,15.5,16.9,30.3,32.7c5,5.3,10.3,11.1,14.5,15.8c3,3.3,5.5,6,7.1,7.8l-0.8-36.8l0-0.1c1.9-8.4,3-8.4,3.5-8.4
					c0.5,0,1.6,0,3.2,8.6l0,0.1L411.2,90C411.2,96.2,411.2,97.5,409.7,97.5z M352.3,35.7l1.2,1.4c3.2,3.6,13.9,15.5,24.8,27.3
					c10.1,10.9,23.8,24.8,24.8,25.8c3.5,3.5,5.8,5.7,6.4,5.9c0.3-0.8,0.3-4.2,0.3-6.1l0.2-44.8c-0.5-2.8-1.3-6-1.9-7.1
					c-0.6,1.1-1.5,4.2-2.1,6.9l0.9,40.1l-1.2-1.2c-1.4-1.5-4.5-4.8-8.4-9.1c-4.2-4.7-9.5-10.5-14.5-15.8
					c-14.8-15.8-28.9-31.1-30.3-32.7c-0.2-0.2-0.5-0.6-0.8-0.9c-0.5-0.6-1.6-1.7-2-1.9c-0.2,0.2-0.4,1-0.4,4.1l-0.1,54.6
					c0,8.9-0.5,11.9-3.4,12.7c-1.2,0.4-2.5,0.5-3.3,0.6c2.9,0,5.8-0.1,7.5-0.2c0.8,0,1.4-0.1,1.6-0.1c0.2,0,0.7,0,1.4,0.1
					c1.8,0.1,4.8,0.2,8.6,0.2c0,0,0,0,0.1,0c-1,0-2.6-0.2-4-0.6c-3-0.9-4-3.7-4.2-11.7L352.3,35.7z M341.7,95.4L341.7,95.4
					C341.7,95.4,341.7,95.4,341.7,95.4C341.7,95.4,341.7,95.4,341.7,95.4z"/>
			</g>
		</g>
		<g>
			<path class="st0" d="M21.6,184.1c-1.3-0.7-1.4-1-1.4-3.6c0-4.8,0.4-8.6,0.5-10.1c0.1-1,0.3-1.5,0.8-1.5c0.6,0,0.7,0.3,0.7,1
				c0,0.9,0,2.2,0.3,3.5c1.4,7,7.7,9.7,14.1,9.7c9.1,0,13.6-6.6,13.6-12.7c0-6.6-2.8-10.4-10.9-17.1l-4.3-3.5
				c-10.1-8.3-12.4-14.2-12.4-20.7c0-10.2,7.6-17.1,19.7-17.1c3.7,0,6.5,0.4,8.9,1c1.8,0.4,2.6,0.5,3.3,0.5c0.8,0,1,0.2,1,0.7
				s-0.4,3.6-0.4,10.1c0,1.5-0.2,2.2-0.7,2.2c-0.6,0-0.7-0.5-0.8-1.2c-0.1-1.1-0.7-3.7-1.2-4.8c-0.6-1-3.1-5-11.9-5
				c-6.6,0-11.7,4.1-11.7,11c0,5.4,2.5,8.9,11.6,16l2.7,2.1c11.2,8.9,13.9,14.8,13.9,22.4c0,3.9-1.5,11.1-8.1,15.8
				c-4.1,2.9-9.2,4-14.4,4C29.9,186.6,25.5,186,21.6,184.1z"/>
			<path class="st1" d="M34.4,187.3c-5.1,0-9.4-0.9-13.1-2.6l0,0c-1.7-0.9-1.8-1.6-1.8-4.2c0-3.9,0.2-7.1,0.4-9
				c0-0.5,0.1-0.8,0.1-1.1c0.1-0.7,0.2-2.2,1.4-2.2c1.3,0,1.3,1.2,1.3,1.7c0,0.8,0,2.1,0.3,3.4c1.7,8.3,9.9,9.2,13.4,9.2
				c8.5,0,12.9-6,12.9-12c0-6.1-2.3-9.7-10.7-16.6l-4.3-3.5c-10.5-8.6-12.6-14.7-12.6-21.2c0-10.7,8.2-17.8,20.4-17.8
				c3.4,0,6.3,0.3,9,1c1.8,0.4,2.5,0.5,3.2,0.5c0.4,0,1.6,0,1.6,1.3c0,0.1,0,0.3,0,0.7c-0.1,1.3-0.3,4.3-0.3,9.4c0,1,0,2.9-1.3,2.9
				c-1.2,0-1.3-1.1-1.4-1.8c-0.1-1.1-0.6-3.6-1.2-4.5c-0.8-1.4-3.4-4.7-11.3-4.7c-6.6,0-11,4.2-11,10.4c0,5.2,2.4,8.5,11.4,15.5
				l2.7,2.1c11.8,9.3,14.2,15.5,14.2,22.9c0,5-2.2,12-8.4,16.4C45.3,185.9,40.2,187.3,34.4,187.3z M21.9,183.5
				c3.5,1.7,7.5,2.5,12.5,2.5c5.5,0,10.4-1.3,14-3.9c7.4-5.3,7.8-13.6,7.8-15.2c0-7-2.2-12.8-13.6-21.8l-2.7-2.1
				c-9.3-7.3-11.9-10.8-11.9-16.5c0-6.9,5.1-11.7,12.4-11.7c8.6,0,11.6,3.8,12.5,5.4c0.6,1.1,1.2,3.8,1.3,5c0,0,0,0.1,0,0.2
				c0-0.2,0-0.6,0-1.1c0-5.1,0.2-8.2,0.3-9.5c0-0.3,0-0.5,0-0.6c-0.1,0-0.1,0-0.3,0c-0.9,0-1.7-0.1-3.5-0.5
				c-2.7-0.6-5.4-0.9-8.7-0.9c-11.6,0-19,6.5-19,16.5c0,6.1,2.1,11.9,12.1,20.1l4.3,3.5c7.7,6.4,11.2,10.5,11.2,17.7
				c0,6.6-4.9,13.3-14.3,13.3c-7.9,0-13.5-3.8-14.8-10.3c-0.3-1.4-0.3-2.8-0.3-3.7c0,0,0,0,0,0c0,0.1-0.1,0.3-0.1,0.6
				c0,0.3,0,0.7-0.1,1.1c-0.1,1.9-0.4,5.1-0.4,8.9C20.9,182.9,21,183,21.9,183.5z"/>
		</g>
		<g>
			<path class="st0" d="M98.5,157.7c0,9.1,0,16.7,0.5,20.7c0.3,2.8,0.9,4.9,3.7,5.2c1.3,0.2,3.4,0.4,4.3,0.4c0.6,0,0.8,0.3,0.8,0.6
				c0,0.5-0.5,0.8-1.5,0.8c-5.2,0-11.2-0.3-11.7-0.3c-0.5,0-6.5,0.3-9.3,0.3c-1,0-1.5-0.2-1.5-0.8c0-0.3,0.2-0.6,0.8-0.6
				c0.9,0,2-0.2,2.9-0.4c1.9-0.4,2.4-2.5,2.8-5.2c0.5-4,0.5-11.5,0.5-20.7v-40.3l-14.1,0.2c-5.9,0.1-8.2,0.8-9.7,3
				c-1,1.6-1.3,2.3-1.6,3c-0.3,0.8-0.6,1-1,1c-0.3,0-0.5-0.3-0.5-0.9c0-1,1.9-9.1,2.1-9.9c0.2-0.6,0.6-1.8,1-1.8
				c0.7,0,1.6,1,4.2,1.1c2.8,0.3,6.4,0.5,7.5,0.5h35.7c3,0,5.2-0.2,6.8-0.5c1.4-0.2,2.3-0.5,2.7-0.5c0.5,0,0.5,0.6,0.5,1.1
				c0,2.9-0.3,9.4-0.3,10.5c0,0.9-0.3,1.2-0.7,1.2c-0.5,0-0.7-0.3-0.8-1.6l-0.1-1c-0.3-2.9-2.6-5-11.7-5.2l-12-0.2V157.7z"/>
			<path class="st1" d="M106.2,186c-4,0-8.5-0.2-10.6-0.2c-0.6,0-1,0-1.1,0c-0.1,0-0.7,0-1.6,0.1c-2.1,0.1-5.7,0.2-7.8,0.2
				c-0.5,0-2.2,0-2.2-1.4c0-0.6,0.4-1.3,1.4-1.3c0.7,0,1.7-0.1,2.7-0.4c1.4-0.3,1.8-1.8,2.2-4.7c0.5-3.9,0.5-11.6,0.5-20.6v-39.6
				l-13.4,0.2c-5.7,0.1-7.8,0.7-9.2,2.7c-1,1.6-1.3,2.2-1.6,2.8c-0.2,0.6-0.6,1.4-1.6,1.4c-0.5,0-1.2-0.4-1.2-1.5
				c0-1.1,2.1-10,2.1-10.1l0.1-0.2c0.4-1.2,0.8-2.2,1.6-2.2c0.4,0,0.7,0.2,1.2,0.3c0.7,0.3,1.5,0.7,3.1,0.8c2.7,0.3,6.3,0.5,7.5,0.5
				h35.7c2.8,0,5-0.2,6.6-0.5c0.8-0.1,1.4-0.2,1.8-0.3c0.4-0.1,0.7-0.2,1-0.2c1.2,0,1.2,1.3,1.2,1.8c0,1.8-0.1,5.1-0.2,7.4
				c0,1.4-0.1,2.6-0.1,3c0,1.8-1.1,1.9-1.3,1.9c-1.3,0-1.4-1.4-1.4-2.2l-0.1-1c-0.2-2.2-1.7-4.4-11-4.6l-11.3-0.2v39.6
				c0,8.9,0,16.6,0.5,20.6c0.3,2.8,0.9,4.3,3.1,4.6c1.4,0.2,3.4,0.4,4.2,0.4c1,0,1.4,0.6,1.4,1.3C108.4,185,108.2,186,106.2,186z
				 M94.5,184.3c0.1,0,0.5,0,1.2,0c2.1,0.1,6.6,0.2,10.6,0.2c-1.1-0.1-2.6-0.2-3.6-0.4c-3.4-0.5-4-3.3-4.3-5.8
				c-0.5-4-0.5-11.4-0.5-20.7v-41l12.7,0.2c8.3,0.2,12,1.9,12.4,5.8l0.1,1.1c0,0.3,0,0.5,0.1,0.6c0-0.1,0-0.1,0-0.2
				c0-0.4,0-1.6,0.1-3.1c0.1-2.4,0.2-5.6,0.2-7.4c0-0.1,0-0.3,0-0.4c-0.1,0-0.3,0.1-0.5,0.1c-0.5,0.1-1.1,0.2-1.9,0.3
				c-1.7,0.3-4,0.5-6.8,0.5H78.4c-1.2,0-4.8-0.2-7.6-0.5c-1.7-0.1-2.8-0.6-3.5-0.9c-0.1-0.1-0.3-0.1-0.4-0.2
				c-0.2,0.3-0.4,0.9-0.5,1.2l0,0.1c-0.3,1.2-2,8.5-2.1,9.6c0-0.1,0.1-0.2,0.1-0.3c0.3-0.7,0.6-1.4,1.7-3.1c1.6-2.5,4-3.3,10.3-3.4
				l14.8-0.2v41c0,9.3,0,16.7-0.5,20.7c-0.3,2.2-0.7,5.3-3.3,5.8c-0.4,0.1-1.4,0.3-2.4,0.4c0,0,0.1,0,0.1,0c2,0,5.6-0.1,7.7-0.2
				C93.7,184.4,94.3,184.3,94.5,184.3z"/>
		</g>
		<g>
			<path class="st0" d="M161.1,112c21.4,0,37.4,13.5,37.4,35.7c0,21.3-15,38.9-38,38.9c-26.1,0-36.9-20.3-36.9-37.4
				C123.6,133.8,134.8,112,161.1,112z M163.1,183c8.6,0,26.3-5,26.3-32.7c0-22.8-13.9-35.1-28.9-35.1c-15.9,0-27.8,10.5-27.8,31.3
				C132.6,168.7,146,183,163.1,183z"/>
			<path class="st1" d="M160.5,187.3c-25.8,0-37.6-19.7-37.6-38.1c0-8.7,3.4-18,9.1-24.8c4.9-6,14-13.1,29.1-13.1
				c22.8,0,38.1,14.6,38.1,36.4c0,10.7-3.8,20.7-10.6,27.9C181.6,183.2,171.6,187.3,160.5,187.3z M161.1,112.7
				c-26.8,0-36.8,22.4-36.8,36.5c0,17.7,11.3,36.7,36.3,36.7c21.6,0,37.3-16.1,37.3-38.3C197.8,126.8,183.1,112.7,161.1,112.7z
				 M163.1,183.7c-8.7,0-16.5-3.6-22.2-10.1c-5.9-6.8-9-16.1-9-27c0-19.7,10.9-32,28.5-32c14.3,0,29.6,11.2,29.6,35.8
				C190.1,182.1,167.6,183.7,163.1,183.7z M160.4,115.9c-16.7,0-27.1,11.7-27.1,30.6c0,21.1,12.2,35.8,29.8,35.8
				c4.3,0,25.6-1.5,25.6-32C188.7,126.7,174.1,115.9,160.4,115.9z"/>
		</g>
		<g>
			<path class="st0" d="M209.2,140.9c0-14.9,0-17.5-0.2-20.6c-0.2-3.2-1-4.8-4.1-5.4c-0.8-0.2-2.4-0.3-3.2-0.3
				c-0.4,0-0.8-0.2-0.8-0.6c0-0.6,0.5-0.8,1.5-0.8c4.3,0,10.3,0.3,10.8,0.3c1,0,8.3-0.3,11.2-0.3c6,0,12.4,0.6,17.4,4.2
				c2.4,1.7,6.6,6.4,6.6,12.9c0,7-3,14.1-11.5,22c7.8,10,14.3,18.5,19.8,24.4c5.1,5.4,9.2,6.5,11.6,6.9c1.8,0.3,3.1,0.3,3.7,0.3
				c0.5,0,0.9,0.3,0.9,0.6c0,0.6-0.6,0.8-2.3,0.8h-6.8c-5.3,0-7.7-0.5-10.2-1.8c-4.1-2.2-7.4-6.9-12.9-14c-4-5.2-8.5-11.6-10.4-14.1
				c-0.4-0.4-0.7-0.6-1.2-0.6l-11.7-0.2c-0.5,0-0.7,0.3-0.7,0.8v2.3c0,9.1,0,16.7,0.5,20.7c0.3,2.8,0.9,4.9,3.7,5.2
				c1.3,0.2,3.4,0.4,4.3,0.4c0.6,0,0.8,0.3,0.8,0.6c0,0.5-0.5,0.8-1.5,0.8c-5.2,0-11.2-0.3-11.7-0.3c-0.1,0-6.1,0.3-8.9,0.3
				c-1,0-1.5-0.2-1.5-0.8c0-0.3,0.2-0.6,0.8-0.6c0.9,0,2-0.2,2.9-0.4c1.9-0.4,2.4-2.5,2.8-5.2c0.5-4,0.5-11.5,0.5-20.7V140.9z
				 M216.8,149.2c0,0.5,0.2,0.9,0.7,1.1c1.4,0.9,5.8,1.5,10,1.5c2.3,0,5-0.3,7.1-1.8c3.3-2.3,5.8-7.4,5.8-14.7
				c0-11.9-6.3-19-16.5-19c-2.9,0-5.4,0.3-6.4,0.6c-0.5,0.2-0.8,0.6-0.8,1.1V149.2z"/>
			<path class="st1" d="M270.6,186h-6.8c-5.3,0-7.9-0.5-10.5-1.9c-3.9-2.1-7.1-6.3-11.9-12.6l-1.2-1.6c-2.3-3-4.8-6.5-6.8-9.2
				c-1.5-2-2.7-3.8-3.5-4.8c-0.3-0.3-0.4-0.3-0.7-0.3l-11.7-0.2c0,0,0,0,0,0.1v2.3c0,8.9,0,16.6,0.5,20.6c0.3,2.8,0.9,4.3,3.1,4.6
				c1.4,0.2,3.4,0.4,4.2,0.4c1,0,1.4,0.6,1.4,1.3c0,0.4-0.2,1.4-2.2,1.4c-4,0-8.5-0.2-10.6-0.2c-0.6,0-1,0-1.1,0l-0.4,0
				c-1.5,0.1-6.1,0.3-8.5,0.3c-0.5,0-2.2,0-2.2-1.4c0-0.6,0.4-1.3,1.4-1.3c0.7,0,1.7-0.1,2.7-0.4c1.4-0.3,1.8-1.8,2.2-4.7
				c0.5-3.9,0.5-11.6,0.5-20.6v-16.8c0-14.8,0-17.5-0.2-20.5c-0.2-3.2-1-4.3-3.6-4.8c-0.7-0.2-2.3-0.3-3.1-0.3
				c-0.8,0-1.4-0.5-1.4-1.3c0-1.4,1.7-1.4,2.2-1.4c3.2,0,7.5,0.2,9.5,0.2c0.7,0,1.1,0,1.3,0c0.4,0,1.6,0,3.2-0.1
				c2.6-0.1,6.2-0.2,8-0.2c5.8,0,12.5,0.5,17.8,4.3c2.5,1.8,6.9,6.7,6.9,13.5c0,7.8-3.6,14.8-11.3,22.1l2.4,3.1
				c6.5,8.4,12.1,15.6,17,20.7c4.9,5.1,8.7,6.2,11.2,6.6c1.8,0.3,3.1,0.3,3.6,0.3c0.8,0,1.5,0.6,1.5,1.3
				C273.6,186,271.8,186,270.6,186z M225.4,184.7L225.4,184.7L225.4,184.7z M217.5,154l11.7,0.2c0.8,0,1.2,0.3,1.7,0.8l0.1,0.1
				c0.8,1.1,2.1,2.8,3.6,4.9c2,2.8,4.5,6.2,6.8,9.2l1.2,1.6c4.7,6.2,7.8,10.3,11.4,12.2c2.4,1.3,4.8,1.7,9.9,1.7h6.8
				c0.1,0,0.1,0,0.2,0c-0.7,0-1.6-0.1-2.6-0.3c-2.7-0.4-6.9-1.6-12-7.1c-4.9-5.2-10.5-12.5-17.1-20.8l-3.2-4.1l0.5-0.4
				c7.7-7.1,11.3-13.9,11.3-21.5c0-6.2-4-10.7-6.3-12.4c-5-3.6-11.4-4.1-17-4.1c-1.8,0-5.4,0.1-8,0.2c-1.6,0.1-2.8,0.1-3.2,0.1
				c-0.1,0-0.6,0-1.3,0c-2-0.1-6.1-0.2-9.3-0.2c0.9,0,1.9,0.1,2.5,0.3c3.6,0.8,4.4,2.7,4.6,6c0.2,3.1,0.2,5.7,0.2,20.6v16.8
				c0,9.3,0,16.7-0.5,20.7c-0.3,2.2-0.7,5.3-3.3,5.8c-0.4,0.1-1.4,0.3-2.4,0.4c0,0,0.1,0,0.1,0c2.4,0,7-0.2,8.5-0.3
				c0.3,0,0.4,0,0.5,0c0.1,0,0.5,0,1.2,0c2.1,0.1,6.5,0.2,10.5,0.2c0,0,0,0,0,0c-1.1-0.1-2.6-0.2-3.6-0.4c-3.5-0.5-4-3.3-4.3-5.8
				c-0.5-4-0.5-11.4-0.5-20.7v-2.3C216.1,154.4,216.8,154,217.5,154z M227.5,152.6c-4.4,0-8.8-0.7-10.3-1.6c-0.7-0.4-1-1-1-1.7
				v-31.1c0-0.8,0.4-1.5,1.2-1.8c1.1-0.3,3.6-0.6,6.6-0.6c10.6,0,17.1,7.6,17.1,19.7c0,6.9-2.3,12.6-6.1,15.2
				C232.5,152.4,229.5,152.6,227.5,152.6z M224,117.1c-2.7,0-5.3,0.3-6.2,0.5c-0.2,0.1-0.3,0.2-0.3,0.5v31.1c0,0.2,0.1,0.4,0.3,0.6
				c1.1,0.7,5.2,1.4,9.6,1.4c1.9,0,4.6-0.2,6.8-1.7c3.5-2.4,5.5-7.6,5.5-14.1C239.7,123.9,233.8,117.1,224,117.1z"/>
		</g>
		<g>
			<path class="st0" d="M289,157.7c0,9.1,0,16.7,0.5,20.7c0.3,2.8,0.9,4.9,3.7,5.2c1.3,0.2,3.4,0.4,4.3,0.4c0.6,0,0.8,0.3,0.8,0.6
				c0,0.5-0.5,0.8-1.5,0.8c-5.2,0-11.2-0.3-11.7-0.3s-6.5,0.3-9.3,0.3c-1,0-1.5-0.2-1.5-0.8c0-0.3,0.2-0.6,0.8-0.6
				c0.9,0,2-0.2,2.9-0.4c1.9-0.4,2.4-2.5,2.8-5.2c0.5-4,0.5-11.5,0.5-20.7v-16.8c0-14.9,0-17.5-0.2-20.6c-0.2-3.2-1.1-4.9-3.2-5.3
				c-1-0.3-2.3-0.4-3-0.4c-0.4,0-0.8-0.2-0.8-0.6c0-0.6,0.5-0.8,1.5-0.8c3.1,0,9.1,0.3,9.6,0.3s6.5-0.3,9.3-0.3c1,0,1.5,0.2,1.5,0.8
				c0,0.4-0.4,0.6-0.8,0.6c-0.7,0-1.2,0.1-2.4,0.3c-2.6,0.5-3.3,2.1-3.5,5.4c-0.2,3-0.2,5.7-0.2,20.6V157.7z"/>
			<path class="st1" d="M296.7,186c-4,0-8.5-0.2-10.6-0.2c-0.6,0-1,0-1.1,0c-0.1,0-0.7,0-1.6,0.1c-2.1,0.1-5.7,0.2-7.8,0.2
				c-0.5,0-2.2,0-2.2-1.4c0-0.6,0.4-1.3,1.4-1.3c0.7,0,1.7-0.1,2.7-0.4c1.4-0.3,1.8-1.8,2.2-4.7c0.5-3.9,0.5-11.6,0.5-20.6v-16.8
				c0-14.8,0-17.5-0.2-20.5c-0.2-3.6-1.4-4.4-2.7-4.7c-1.1-0.3-2.3-0.4-2.8-0.4c-0.8,0-1.4-0.5-1.4-1.3c0-1.4,1.7-1.4,2.2-1.4
				c2.3,0,6.1,0.2,8.1,0.2c0.8,0,1.4,0.1,1.5,0.1c0.1,0,0.7,0,1.6-0.1c2.1-0.1,5.7-0.2,7.8-0.2c0.5,0,2.2,0,2.2,1.4
				c0,0.7-0.6,1.3-1.4,1.3c-0.6,0-1.2,0.1-2.3,0.3c-2.1,0.4-2.8,1.5-3,4.8c-0.2,3-0.2,5.7-0.2,20.5v16.8c0,8.9,0,16.6,0.5,20.6
				c0.3,2.8,0.9,4.3,3.1,4.6c1.4,0.2,3.4,0.4,4.2,0.4c1,0,1.4,0.6,1.4,1.3C298.9,185,298.7,186,296.7,186z M285,184.3
				c0.1,0,0.5,0,1.2,0c2.1,0.1,6.5,0.2,10.5,0.2c0,0,0,0,0,0c-1.1-0.1-2.6-0.2-3.6-0.4c-3.5-0.5-4-3.3-4.3-5.8
				c-0.5-4-0.5-11.4-0.5-20.7v-16.8c0-14.9,0-17.5,0.2-20.6c0.2-3.3,0.9-5.5,4.1-6.1c0.8-0.1,1.4-0.2,1.9-0.3c0,0-0.1,0-0.1,0
				c-2,0-5.6,0.1-7.7,0.2c-0.9,0-1.5,0.1-1.6,0.1c-0.1,0-0.7,0-1.5-0.1c-2-0.1-5.8-0.2-8.1-0.2c0.7,0,1.6,0.2,2.4,0.4
				c3,0.7,3.6,3.5,3.7,5.9c0.2,3.1,0.2,5.7,0.2,20.6v16.8c0,9.3,0,16.7-0.5,20.7c-0.3,2.2-0.7,5.3-3.3,5.8c-0.4,0.1-1.4,0.3-2.4,0.4
				c0,0,0.1,0,0.1,0c2,0,5.6-0.1,7.7-0.2C284.2,184.4,284.8,184.3,285,184.3z"/>
		</g>
		<g>
			<path class="st0" d="M317.2,140.9c0-14.9,0-17.5-0.2-20.6c-0.2-3.2-1-4.8-4.1-5.4c-0.8-0.2-2.4-0.3-3.2-0.3
				c-0.4,0-0.8-0.2-0.8-0.6c0-0.6,0.5-0.8,1.5-0.8c2.2,0,4.8,0,6.9,0.1l3.9,0.2c0.7,0,19.6,0,21.8-0.1c1.8-0.1,3.3-0.3,4.1-0.5
				c0.5-0.1,0.9-0.5,1.3-0.5c0.3,0,0.4,0.4,0.4,0.9c0,0.7-0.5,1.8-0.8,4.5c-0.1,1-0.3,5.1-0.5,6.3c-0.1,0.5-0.3,1-0.7,1
				c-0.6,0-0.8-0.5-0.8-1.2c0-0.7-0.1-2.3-0.6-3.4c-0.7-1.5-1.6-2.7-6.8-3.2c-1.6-0.2-12-0.3-13-0.3c-0.4,0-0.6,0.3-0.6,1v26.3
				c0,0.7,0.1,1,0.6,1c1.2,0,12.9,0,15.1-0.2c2.3-0.2,3.6-0.4,4.5-1.3c0.7-0.8,1-1.2,1.4-1.2c0.3,0,0.5,0.2,0.5,0.8
				c0,0.6-0.5,2.2-0.8,5.3c-0.2,1.9-0.4,5.4-0.4,6.1c0,0.8,0,1.8-0.7,1.8c-0.5,0-0.7-0.4-0.7-0.9c0-1,0-1.9-0.4-3.1
				c-0.4-1.3-1.2-3-5-3.3c-2.6-0.3-12-0.5-13.6-0.5c-0.5,0-0.7,0.3-0.7,0.7v8.4c0,3.2-0.1,14.3,0,16.3c0.3,6.6,1.7,7.8,11,7.8
				c2.5,0,6.7,0,9.1-1c2.5-1,3.6-3,4.3-6.9c0.2-1,0.4-1.4,0.9-1.4c0.6,0,0.6,0.8,0.6,1.4c0,0.8-0.8,7.2-1.2,9.2
				c-0.7,2.5-1.4,2.5-5.1,2.5c-7.1,0-12.4-0.2-16.1-0.3c-3.7-0.2-6-0.3-7.4-0.3c-0.2,0-1.8,0-3.8,0.1c-1.9,0-4.1,0.2-5.5,0.2
				c-1,0-1.5-0.2-1.5-0.8c0-0.3,0.2-0.6,0.8-0.6c0.9,0,2-0.2,2.9-0.4c1.9-0.4,2.4-2.5,2.8-5.2c0.5-4,0.5-11.5,0.5-20.7V140.9z"/>
			<path class="st1" d="M344.7,186.3c-5.9,0-10.6-0.1-14-0.2l-2.1-0.1c-4-0.2-6.1-0.3-7.4-0.3c-0.4,0-1.9,0-3.8,0.1
				c-1,0-2.1,0.1-3.1,0.1c-0.9,0-1.7,0.1-2.4,0.1c-0.5,0-2.2,0-2.2-1.4c0-0.6,0.4-1.3,1.4-1.3c0.7,0,1.7-0.1,2.7-0.4
				c1.4-0.3,1.8-1.8,2.2-4.7c0.5-3.9,0.5-11.6,0.5-20.6v-16.8c0-14.8,0-17.5-0.2-20.5c-0.2-3.2-1-4.3-3.6-4.8
				c-0.7-0.2-2.3-0.3-3.1-0.3c-0.8,0-1.4-0.5-1.4-1.3c0-1.4,1.7-1.4,2.2-1.4c2.2,0,4.8,0,6.9,0.1l3.9,0.2c0.8,0,19.6,0,21.7-0.1
				c1.6-0.1,3.2-0.3,4-0.5c0.1,0,0.3-0.1,0.4-0.2c0.3-0.1,0.6-0.3,1.1-0.3c0.3,0,1.1,0.1,1.1,1.5c0,0.3-0.1,0.7-0.2,1.3
				c-0.2,0.7-0.4,1.7-0.6,3.3c0,0.3-0.1,1.1-0.1,2c-0.1,1.6-0.2,3.6-0.4,4.4c-0.3,1.3-0.9,1.6-1.3,1.6c-0.5,0-1.4-0.2-1.4-1.9
				c0-0.7-0.1-2.2-0.5-3.2c-0.5-1.1-1-2.2-6.2-2.8c-1.5-0.2-11.2-0.3-12.8-0.3c0,0.1,0,0.1,0,0.3v26.3c0,0.1,0,0.2,0,0.3
				c0.1,0,0.1,0,0.2,0c6.2,0,13.2-0.1,14.8-0.2c2.3-0.2,3.4-0.4,4-1.1l0.2-0.2c0.7-0.8,1.1-1.3,1.8-1.3c0.2,0,1.2,0.1,1.2,1.4
				c0,0.3-0.1,0.6-0.2,1.2c-0.2,0.9-0.4,2.2-0.6,4.2c-0.2,2-0.4,5.4-0.4,6c0,0.8,0,2.5-1.3,2.5c-0.8,0-1.3-0.6-1.3-1.5
				c0-0.9,0-1.8-0.4-2.9c-0.4-1.3-1.2-2.5-4.4-2.9c-2.5-0.3-11.9-0.5-13.5-0.5l0,8.4c0,0.9,0,2.4,0,4.2c0,4.5-0.1,10.6,0,12.1
				c0.3,6,1.1,7.2,10.4,7.2c2.4,0,6.5,0,8.9-1c2.2-0.9,3.2-2.6,3.9-6.3c0.1-0.8,0.4-2,1.5-2c1.3,0,1.3,1.4,1.3,2.1
				c0,0.9-0.8,7.4-1.3,9.4C349.7,186.3,348.4,186.3,344.7,186.3z M321.2,184.3c1.4,0,3.4,0.1,7.5,0.3l2.1,0.1
				c3.4,0.1,8.1,0.2,14,0.2c3.8,0,4-0.1,4.5-2c0.5-1.9,1.2-8.4,1.2-9.1c0-0.1,0-0.2,0-0.3c0,0.1-0.1,0.2-0.1,0.4
				c-0.7,4.2-2,6.2-4.7,7.4c-2.6,1.1-6.9,1.1-9.4,1.1c-9.5,0-11.4-1.3-11.7-8.5c-0.1-1.5,0-7.6,0-12.1c0-1.8,0-3.3,0-4.2v-8.4
				c0-0.8,0.5-1.3,1.3-1.3c1.6,0,11.1,0.2,13.7,0.5c4,0.4,5.1,2.3,5.5,3.8c0.3,0.8,0.3,1.5,0.4,2.2c0-1,0.2-4.2,0.4-6
				c0.2-2,0.4-3.4,0.6-4.3c0.1-0.4,0.1-0.7,0.1-0.9c-0.2,0.2-0.4,0.4-0.5,0.6l-0.2,0.2c-1,1.2-2.6,1.4-4.9,1.6
				c-2.1,0.2-12.2,0.2-15.2,0.2c-1.2,0-1.2-1.2-1.2-1.6V118c0-1.5,0.9-1.6,1.2-1.6c0.7,0,11.4,0.1,13.1,0.3c5.1,0.6,6.4,1.7,7.3,3.6
				c0.6,1.5,0.6,3.5,0.6,3.7c0,0.1,0,0.2,0,0.3c0-0.1,0-0.2,0.1-0.3c0.1-0.7,0.2-2.7,0.3-4.2c0.1-0.9,0.1-1.7,0.1-2
				c0.2-1.6,0.4-2.7,0.6-3.4c0.1-0.4,0.2-0.8,0.2-1c0,0,0-0.1,0-0.1c0,0-0.1,0-0.1,0.1c-0.2,0.1-0.5,0.2-0.8,0.3
				c-0.8,0.2-2.4,0.4-4.2,0.5c-2.1,0.1-19.8,0.1-21.8,0.1l-3.9-0.2c-2-0.1-4.5-0.1-6.7-0.1c0.9,0,1.9,0.1,2.5,0.3
				c3.6,0.8,4.4,2.7,4.6,6c0.2,3.1,0.2,5.7,0.2,20.6v16.8c0,9.3,0,16.7-0.5,20.7c-0.3,2.2-0.7,5.3-3.3,5.8c-0.4,0.1-1.4,0.3-2.4,0.4
				c0.6,0,1.5,0,2.5-0.1c1.1-0.1,2.1-0.1,3.2-0.1C319.2,184.4,320.7,184.3,321.2,184.3z"/>
		</g>
		<g>
			<path class="st0" d="M365.3,184.1c-1.3-0.7-1.4-1-1.4-3.6c0-4.8,0.4-8.6,0.5-10.1c0.1-1,0.3-1.5,0.8-1.5c0.6,0,0.7,0.3,0.7,1
				c0,0.9,0,2.2,0.3,3.5c1.4,7,7.7,9.7,14.1,9.7c9.1,0,13.6-6.6,13.6-12.7c0-6.6-2.8-10.4-10.9-17.1l-4.3-3.5
				c-10.1-8.3-12.4-14.2-12.4-20.7c0-10.2,7.6-17.1,19.7-17.1c3.7,0,6.5,0.4,8.9,1c1.8,0.4,2.6,0.5,3.3,0.5s1,0.2,1,0.7
				s-0.4,3.6-0.4,10.1c0,1.5-0.2,2.2-0.7,2.2c-0.6,0-0.7-0.5-0.8-1.2c-0.1-1.1-0.7-3.7-1.2-4.8c-0.6-1-3.1-5-11.9-5
				c-6.6,0-11.7,4.1-11.7,11c0,5.4,2.5,8.9,11.6,16l2.7,2.1c11.2,8.9,13.9,14.8,13.9,22.4c0,3.9-1.5,11.1-8.1,15.8
				c-4.1,2.9-9.2,4-14.4,4C373.6,186.6,369.2,186,365.3,184.1z"/>
			<path class="st1" d="M378.1,187.3c-5.1,0-9.4-0.9-13.1-2.6l0,0c-1.7-0.9-1.8-1.6-1.8-4.2c0-3.9,0.2-7.1,0.4-9
				c0-0.5,0.1-0.8,0.1-1.1c0.1-0.7,0.2-2.2,1.4-2.2c1.3,0,1.3,1.2,1.3,1.7c0,0.8,0,2.1,0.3,3.4c1.7,8.3,10,9.2,13.4,9.2
				c8.5,0,12.9-6,12.9-12c0-6.1-2.3-9.7-10.7-16.6l-4.3-3.5c-10.5-8.6-12.6-14.7-12.6-21.2c0-10.7,8.2-17.8,20.4-17.8
				c3.4,0,6.3,0.3,9,1c1.8,0.4,2.5,0.5,3.2,0.5c0.4,0,1.6,0,1.6,1.3c0,0.1,0,0.3,0,0.7c-0.1,1.3-0.3,4.3-0.3,9.4c0,1,0,2.9-1.3,2.9
				c-1.2,0-1.3-1.1-1.4-1.8c-0.1-1.1-0.6-3.6-1.2-4.5c-0.8-1.4-3.4-4.7-11.3-4.7c-6.6,0-11,4.2-11,10.4c0,5.2,2.4,8.5,11.4,15.5
				l2.7,2.1c11.8,9.3,14.2,15.5,14.2,22.9c0,5-2.2,12-8.4,16.4C389,185.9,383.9,187.3,378.1,187.3z M365.6,183.5
				c3.5,1.7,7.5,2.5,12.5,2.5c5.5,0,10.4-1.3,14-3.9c7.4-5.3,7.8-13.6,7.8-15.2c0-7-2.2-12.8-13.6-21.8l-2.7-2.1
				c-9.3-7.3-11.9-10.8-11.9-16.5c0-6.9,5.1-11.7,12.4-11.7c8.6,0,11.6,3.8,12.5,5.4c0.6,1.1,1.2,3.8,1.3,5c0,0,0,0.1,0,0.2
				c0-0.2,0-0.6,0-1.1c0-5.1,0.2-8.2,0.3-9.5c0-0.3,0-0.5,0-0.6c-0.1,0-0.1,0-0.3,0c-0.9,0-1.7-0.1-3.5-0.5
				c-2.7-0.6-5.4-0.9-8.7-0.9c-11.6,0-19,6.5-19,16.5c0,6.1,2.1,11.9,12.1,20.1l4.3,3.5c7.7,6.4,11.2,10.5,11.2,17.7
				c0,6.6-4.9,13.3-14.3,13.3c-7.9,0-13.5-3.8-14.8-10.3c-0.3-1.4-0.3-2.8-0.3-3.7c0,0,0,0,0,0c0,0.1-0.1,0.3-0.1,0.6
				c0,0.3,0,0.7-0.1,1.1c-0.1,1.9-0.4,5.1-0.4,8.9C364.6,182.9,364.7,183,365.6,183.5z"/>
		</g>
		<g>
			<path class="st0" d="M418,23.6c1.9-1.9,4-2.9,6.4-4.1c3.2-1.6,5.4-3.1,8.9-4.3c2.2-0.8,5.6-2.8,6-5.2
				c-1.4,9.5-7.9,18.2-16.6,22.2c-2,0.9-9.7,2.7-11.9,3.3C410.4,33.7,416.2,25.5,418,23.6z"/>
			<path class="st1" d="M410.2,36.4l-0.1-0.7c-0.4-2.4,6.1-11.1,7.5-12.6l0,0c1.7-1.8,3.7-2.8,5.8-3.8l0.8-0.4
				c0.9-0.5,1.7-0.9,2.5-1.3c2-1.1,3.9-2.1,6.4-3c2.1-0.7,5.2-2.7,5.5-4.7l1.3,0.2c-1.4,9.7-8.1,18.6-17,22.7
				c-1.5,0.7-5.5,1.7-8.8,2.5c-1.4,0.3-2.6,0.6-3.2,0.8L410.2,36.4z M418.5,24.1c-1.9,2-6.1,8.1-6.9,10.6c0.6-0.2,1.4-0.4,2.3-0.6
				c3-0.8,7.2-1.8,8.5-2.4c7.5-3.4,13.3-10.3,15.5-18.2c-1.3,1.2-3.1,2.1-4.4,2.5c-2.4,0.8-4.2,1.8-6.2,2.9
				c-0.8,0.4-1.6,0.9-2.6,1.3l-0.8,0.4C421.8,21.5,420.1,22.4,418.5,24.1L418.5,24.1z"/>
		</g>
		<g>
			<path class="st0" d="M408.8,39.9c0-0.6-1.4-2-1.8-2.4c-2-2.6-4.1-5.4-6.9-7.1c-3.7-2.3-7.7-4.6-10-8.5c-2.2-3.8-2.1-8.9,0.3-12.6
				c-0.5,0.7,2.9,4.8,3.4,5.4c2,2.4,4.7,4.1,7.1,6.1c2,1.7,3.5,3.8,4.6,6.2C407.4,30.9,408.6,35.4,408.8,39.9z"/>
			<path class="st1" d="M408.1,39.9c-0.1-0.3-0.8-1.1-1.1-1.5c-0.2-0.2-0.4-0.5-0.5-0.6c-1.9-2.6-4-5.2-6.7-7
				c-0.4-0.2-0.7-0.5-1.1-0.7c-3.4-2.2-7-4.4-9.1-8.1c-2.3-4-2.2-9.4,0.3-13.3c0,0,0,0,0,0l1.1,0.7l0,0c0.1-0.1,0.1-0.2,0.1-0.2
				c0,0.5,1.5,2.7,3.3,4.8c1.3,1.6,2.9,2.8,4.6,4.1c0.8,0.6,1.7,1.3,2.5,2c2,1.7,3.5,3.8,4.8,6.4c2.1,4.4,3.2,9,3.4,13.2
				c0,0,0,0,0,0l0,0L408.1,39.9C408.1,39.9,408.1,39.9,408.1,39.9z M390.3,10.8c-1.5,3.3-1.4,7.4,0.5,10.6c1.9,3.4,5.3,5.5,8.6,7.6
				c0.4,0.2,0.7,0.5,1.1,0.7c2.9,1.9,5.2,4.8,7.1,7.3c0.1,0.1,0.2,0.2,0.4,0.4c-0.4-3.4-1.5-6.9-3-10.3c-1.1-2.5-2.6-4.4-4.4-6
				c-0.8-0.7-1.6-1.3-2.4-1.9c-1.7-1.3-3.4-2.6-4.8-4.3C391.7,13.1,390.8,11.7,390.3,10.8z"/>
		</g>
		<g>
			<path class="st0" d="M437.1,43.7c-2.2-0.4-3.3-2.7-4.8-4.4c-2.4-2.7-6.1-4.1-9.7-4.1c-3.6,0-7.2,1.2-10.4,2.9
				c1.6,2.1,3.2,4.3,5.6,5.5c2.1,1,4.5,1.1,6.8,0.9c2.3-0.2,4.6-0.7,6.9-0.9C433.2,43.5,435.3,43.4,437.1,43.7z"/>
			<path class="st1" d="M422.7,45.2c-2,0-3.7-0.3-5.2-1c-2.4-1.1-3.9-3.2-5.4-5.2l-0.9-1.2l0.7-0.4c3.7-2,7.3-3,10.6-3
				c0,0,0,0,0.1,0c4.1,0,7.9,1.6,10.2,4.3c0.4,0.4,0.7,0.9,1,1.3c1,1.3,2,2.6,3.4,2.9l-0.3,1.3c-1.7-0.3-3.6-0.2-5.5-0.1
				c-1.2,0.1-2.5,0.3-3.7,0.5c-1,0.2-2.1,0.3-3.1,0.4C424,45.2,423.3,45.2,422.7,45.2z M413.2,38.3c1.4,1.9,2.8,3.7,4.9,4.6
				c1.7,0.8,3.8,1.1,6.4,0.8c1-0.1,2.1-0.3,3.1-0.4c1.2-0.2,2.5-0.4,3.8-0.5c0.9-0.1,1.9-0.1,2.9-0.1c-0.5-0.6-1-1.2-1.5-1.8
				c-0.3-0.4-0.6-0.9-1-1.2c-2.1-2.4-5.5-3.9-9.2-3.9C419.7,35.8,416.5,36.7,413.2,38.3z"/>
		</g>
		<g>
			<path class="st0" d="M408.3,25.3c-0.6-1.8-1.5-3.5-2-5.3c-0.9-3.9,0.5-8.1,3-11.2s5.9-5.4,9.4-7.3c-0.9,2.4-0.2,5,0,7.5
				c0.4,4.5-1,9.2-3.7,12.8c-0.9,1.1-1.9,2.2-2.6,3.4c-1.1,1.7-1.6,3.7-2.2,5.6C408.7,30,408.8,26.8,408.3,25.3z"/>
			<path class="st1" d="M410.6,31.7l-0.7-0.4c-1.3-0.7-1.6-2.5-1.8-4.2c-0.1-0.7-0.2-1.3-0.4-1.7v0c-0.2-0.7-0.5-1.3-0.8-2
				c-0.5-1.1-0.9-2.2-1.2-3.4c-0.9-3.8,0.3-8.2,3.1-11.8c2.8-3.5,6.6-5.8,9.6-7.5L420,0l-0.7,1.7c-0.6,1.7-0.4,3.5-0.2,5.4
				c0.1,0.6,0.2,1.2,0.2,1.8c0.4,4.7-1,9.5-3.9,13.2c-0.3,0.4-0.7,0.8-1,1.3c-0.6,0.7-1.1,1.4-1.6,2.1c-0.9,1.4-1.3,2.9-1.8,4.5
				c-0.1,0.3-0.2,0.6-0.3,0.9L410.6,31.7z M408.9,25c0.2,0.5,0.3,1.2,0.4,1.9c0.1,0.8,0.3,1.7,0.6,2.4c0.5-1.5,1-3.1,1.9-4.5
				c0.5-0.8,1.1-1.5,1.7-2.2c0.3-0.4,0.7-0.8,1-1.2c2.6-3.5,4-8,3.6-12.3c0-0.6-0.1-1.2-0.2-1.8c-0.2-1.5-0.4-3-0.2-4.5
				c-2.6,1.5-5.6,3.5-7.8,6.3c-2.6,3.3-3.7,7.2-2.9,10.6c0.3,1.1,0.7,2.1,1.1,3.2C408.4,23.6,408.7,24.3,408.9,25L408.9,25z"/>
		</g>
	</g>
	<g>
		<g>
			<g>
				<path class="st0" d="M56.8,71.9c0-7.7-0.5-8.8-4.3-9.8c-0.8-0.2-2.4-0.3-3.2-0.3c-0.4,0-0.8-0.2-0.8-0.6c0-0.6,0.5-0.8,1.5-0.8
					c4.3,0,10.3,0.3,10.8,0.3c0.5,0,6.5-0.3,9.3-0.3c1,0,1.5,0.2,1.5,0.8c0,0.4-0.4,0.6-0.8,0.6c-0.7,0-1.2,0.1-2.4,0.3
					c-2.6,0.5-3.3,2.1-3.5,5.4c-0.2,3-0.2,5.9-0.2,9.9V88c0,4.3-0.1,4.5-1.2,5.1c-6.1,3.2-14.7,4.3-20.2,4.3
					c-7.2,0-20.8-1-31.3-10.2C6.2,82.2,0.7,72,0.7,60.1c0-15.2,7.4-26,15.9-31.3c8.6-5.3,18-6,25.3-6c6,0,12.8,1.2,14.6,1.6
					c2,0.5,5.3,0.9,7.7,1c1,0.1,1.1,0.5,1.1,0.9c0,1.3-0.7,4-0.7,13.5c0,1.5-0.2,2-0.9,2c-0.5,0-0.6-0.6-0.7-1.4
					c-0.1-1.3-0.6-4-2-6.3c-2.4-3.6-10.1-7.7-22.4-7.7c-6,0-13.1,0.6-20.4,6.3C12.9,37,9,45.7,9,56.8c0,13.4,6.8,23.1,10.1,26.4
					c7.5,7.3,16.2,10.2,24.9,10.2c3.4,0,8.4-0.6,10.9-2c1.2-0.7,1.9-1.7,1.9-3.3V71.9z"/>
			</g>
			<g>
				<path class="st0" d="M103.5,26.5c1.1-3.1,1.5-3.7,2.1-3.7c0.6,0,1,0.5,2.1,3.4c1.4,3.6,16.4,42.9,22.2,57.4
					c3.4,8.5,6.2,10,8.2,10.6c1.4,0.5,2.9,0.6,3.8,0.6c0.6,0,1,0.1,1,0.6c0,0.6-0.9,0.8-1.9,0.8c-1.4,0-8.4,0-14.9-0.2
					c-1.8-0.1-2.9-0.1-2.9-0.7c0-0.4,0.3-0.6,0.7-0.7c0.6-0.2,1.1-1,0.6-2.6l-8.9-23.4c-0.2-0.4-0.4-0.6-0.9-0.6H94.2
					c-0.5,0-0.8,0.3-1,0.8l-5.7,16.9c-0.9,2.4-1.3,4.7-1.3,6.4c0,1.9,2,2.8,3.6,2.8h1c0.7,0,1,0.2,1,0.6c0,0.6-0.6,0.8-1.4,0.8
					c-2.3,0-6.4-0.3-7.4-0.3c-1,0-6.3,0.3-10.8,0.3c-1.2,0-1.8-0.2-1.8-0.8c0-0.4,0.4-0.6,0.9-0.6c0.7,0,2-0.1,2.8-0.2
					c4.4-0.6,6.3-4.2,8-8.9L103.5,26.5z M113.4,64.6c0.5,0,0.5-0.3,0.4-0.7l-9-25.7c-0.5-1.4-1-1.4-1.4,0L94.9,64
					c-0.2,0.5,0,0.7,0.3,0.7H113.4z"/>
			</g>
			<g>
				<path class="st0" d="M152.6,51.8c0-14.9,0-17.5-0.2-20.6c-0.2-3.2-1-4.8-4.1-5.4c-0.8-0.2-2.4-0.3-3.2-0.3
					c-0.4,0-0.8-0.2-0.8-0.6c0-0.6,0.5-0.8,1.5-0.8c4.3,0,10.3,0.3,10.8,0.3c1,0,8.3-0.3,11.2-0.3c6,0,12.4,0.6,17.4,4.2
					c2.4,1.7,6.6,6.4,6.6,12.9c0,7-3,14.1-11.5,22c7.8,10,14.3,18.5,19.8,24.4c5.1,5.4,9.2,6.5,11.6,6.9c1.8,0.3,3.1,0.3,3.7,0.3
					c0.5,0,0.9,0.3,0.9,0.6c0,0.6-0.6,0.8-2.3,0.8h-6.8c-5.3,0-7.7-0.5-10.2-1.8c-4.1-2.2-7.4-6.9-12.9-14
					c-4-5.2-8.5-11.6-10.4-14.1c-0.4-0.4-0.7-0.6-1.2-0.6l-11.7-0.2c-0.5,0-0.7,0.3-0.7,0.8v2.3c0,9.1,0,16.7,0.5,20.7
					c0.3,2.8,0.9,4.9,3.7,5.2c1.3,0.2,3.4,0.4,4.3,0.4c0.6,0,0.8,0.3,0.8,0.6c0,0.5-0.5,0.8-1.5,0.8c-5.2,0-11.2-0.3-11.7-0.3
					c-0.1,0-6.1,0.3-9,0.3c-1,0-1.5-0.2-1.5-0.8c0-0.3,0.2-0.6,0.8-0.6c0.9,0,2-0.2,2.9-0.4c1.9-0.4,2.4-2.5,2.8-5.2
					c0.5-4,0.5-11.5,0.5-20.7V51.8z M160.3,60c0,0.5,0.2,0.9,0.7,1.1c1.4,0.9,5.8,1.5,10,1.5c2.3,0,5-0.3,7.1-1.8
					c3.3-2.3,5.8-7.4,5.8-14.7c0-11.9-6.3-19-16.5-19c-2.9,0-5.4,0.3-6.4,0.6c-0.5,0.2-0.8,0.6-0.8,1.1V60z"/>
			</g>
			<g>
				<path class="st0" d="M220.6,51.8c0-14.9,0-17.5-0.2-20.6c-0.2-3.2-1-4.8-4.1-5.4c-0.8-0.2-2.4-0.3-3.2-0.3
					c-0.4,0-0.8-0.2-0.8-0.6c0-0.6,0.5-0.8,1.5-0.8c4.3,0,10.3,0.3,10.8,0.3c1.1,0,7.1-0.3,12.9-0.3c9.4,0,26.8-0.9,38.2,10.9
					c4.8,5,9.2,12.9,9.2,24.2c0,12-5,21.2-10.3,26.8c-4.1,4.3-12.7,10.9-28.8,10.9c-4.1,0-9.1-0.3-13.2-0.6
					c-4.2-0.3-7.4-0.6-7.9-0.6c-0.2,0-1.8,0-3.8,0.1c-1.9,0-4.1,0.2-5.5,0.2c-1,0-1.5-0.2-1.5-0.8c0-0.3,0.2-0.6,0.8-0.6
					c0.9,0,2-0.2,2.9-0.4c1.9-0.4,2.4-2.5,2.8-5.2c0.5-4,0.5-11.5,0.5-20.7V51.8z M228.6,62c0,10.1,0.1,18.9,0.2,20.7
					c0.1,2.4,0.3,6.2,1,7.2c1.2,1.8,5,3.8,16.2,3.8c8.9,0,17-3.2,22.7-8.9c5-4.9,7.6-14,7.6-22.8c0-12.1-5.2-19.9-9.1-24
					c-9-9.4-19.8-10.8-31.1-10.8c-1.9,0-5.4,0.3-6.2,0.7c-0.9,0.4-1.1,0.9-1.1,1.9c-0.1,3.2-0.1,12.9-0.1,20.3V62z"/>
			</g>
			<g>
				<path class="st0" d="M297.5,51.8c0-14.9,0-17.5-0.2-20.6c-0.2-3.2-1-4.8-4.1-5.4c-0.8-0.2-2.4-0.3-3.2-0.3
					c-0.4,0-0.8-0.2-0.8-0.6c0-0.6,0.5-0.8,1.5-0.8c2.2,0,4.8,0,6.9,0.1l3.9,0.2c0.7,0,19.6,0,21.8-0.1c1.8-0.1,3.3-0.3,4.1-0.5
					c0.5-0.1,0.9-0.5,1.3-0.5c0.3,0,0.4,0.4,0.4,0.9c0,0.7-0.5,1.8-0.8,4.5c-0.1,1-0.3,5.1-0.5,6.3c-0.1,0.5-0.3,1-0.7,1
					c-0.6,0-0.8-0.5-0.8-1.2c0-0.7-0.1-2.3-0.6-3.4c-0.7-1.5-1.6-2.7-6.8-3.2c-1.6-0.2-12-0.3-13-0.3c-0.4,0-0.6,0.3-0.6,1v26.3
					c0,0.7,0.1,1,0.6,1c1.2,0,12.9,0,15.1-0.2c2.3-0.2,3.6-0.4,4.5-1.3c0.7-0.8,1-1.2,1.4-1.2c0.3,0,0.5,0.2,0.5,0.8
					c0,0.6-0.5,2.2-0.8,5.3c-0.2,1.9-0.4,5.4-0.4,6.1c0,0.8,0,1.8-0.7,1.8c-0.5,0-0.7-0.4-0.7-0.9c0-1,0-1.9-0.4-3.1
					c-0.4-1.3-1.2-3-5-3.3c-2.6-0.3-12-0.5-13.6-0.5c-0.5,0-0.7,0.3-0.7,0.7v8.4c0,3.2-0.1,14.3,0,16.3c0.3,6.6,1.7,7.8,11,7.8
					c2.5,0,6.7,0,9.1-1c2.5-1,3.6-3,4.3-6.9c0.2-1,0.4-1.4,0.9-1.4c0.6,0,0.6,0.8,0.6,1.4c0,0.8-0.8,7.2-1.2,9.2
					c-0.7,2.5-1.4,2.5-5.1,2.5c-7.1,0-12.4-0.2-16.1-0.3c-3.7-0.2-6-0.3-7.4-0.3c-0.2,0-1.8,0-3.8,0.1c-1.9,0-4.1,0.2-5.5,0.2
					c-1,0-1.5-0.2-1.5-0.8c0-0.3,0.2-0.6,0.8-0.6c0.9,0,2-0.2,2.9-0.4c1.9-0.4,2.4-2.5,2.8-5.2c0.5-4,0.5-11.5,0.5-20.7V51.8z"/>
			</g>
			<g>
				<path class="st0" d="M354.3,83.2c0.2,7.8,1.1,10.3,3.7,11c1.8,0.5,3.9,0.6,4.8,0.6c0.5,0,0.8,0.2,0.8,0.6c0,0.6-0.6,0.8-1.7,0.8
					c-5.4,0-9.2-0.3-10.1-0.3c-0.9,0-4.9,0.3-9.1,0.3c-1,0-1.5-0.1-1.5-0.8c0-0.4,0.3-0.6,0.8-0.6c0.8,0,2.5-0.1,3.9-0.6
					c2.4-0.7,2.9-3.4,2.9-12.1l0.1-54.6c0-3.7,0.3-4.8,1-4.8c0.8,0,2.4,2.1,3.3,3c1.4,1.6,15.6,16.9,30.3,32.7
					c9.4,10.1,19.8,21.7,22.8,24.8l-0.8-38.4c0,0,1.8-7.8,2.8-7.8s2.6,8,2.6,8L410.6,90c0,6.3-0.2,6.8-0.9,6.8c-0.8,0-1.9-1-7-6.1
					c-1-1-14.8-14.9-24.8-25.8c-11-11.9-21.8-23.9-24.8-27.3L354.3,83.2z"/>
			</g>
		</g>
		<g>
			<path class="st0" d="M21.6,184.1c-1.3-0.7-1.4-1-1.4-3.6c0-4.8,0.4-8.6,0.5-10.1c0.1-1,0.3-1.5,0.8-1.5c0.6,0,0.7,0.3,0.7,1
				c0,0.9,0,2.2,0.3,3.5c1.4,7,7.7,9.7,14.1,9.7c9.1,0,13.6-6.6,13.6-12.7c0-6.6-2.8-10.4-10.9-17.1l-4.3-3.5
				c-10.1-8.3-12.4-14.2-12.4-20.7c0-10.2,7.6-17.1,19.7-17.1c3.7,0,6.5,0.4,8.9,1c1.8,0.4,2.6,0.5,3.3,0.5c0.8,0,1,0.2,1,0.7
				s-0.4,3.6-0.4,10.1c0,1.5-0.2,2.2-0.7,2.2c-0.6,0-0.7-0.5-0.8-1.2c-0.1-1.1-0.7-3.7-1.2-4.8c-0.6-1-3.1-5-11.9-5
				c-6.6,0-11.7,4.1-11.7,11c0,5.4,2.5,8.9,11.6,16l2.7,2.1c11.2,8.9,13.9,14.8,13.9,22.4c0,3.9-1.5,11.1-8.1,15.8
				c-4.1,2.9-9.2,4-14.4,4C29.9,186.6,25.5,186,21.6,184.1z"/>
		</g>
		<g>
			<path class="st0" d="M98.5,157.7c0,9.1,0,16.7,0.5,20.7c0.3,2.8,0.9,4.9,3.7,5.2c1.3,0.2,3.4,0.4,4.3,0.4c0.6,0,0.8,0.3,0.8,0.6
				c0,0.5-0.5,0.8-1.5,0.8c-5.2,0-11.2-0.3-11.7-0.3c-0.5,0-6.5,0.3-9.3,0.3c-1,0-1.5-0.2-1.5-0.8c0-0.3,0.2-0.6,0.8-0.6
				c0.9,0,2-0.2,2.9-0.4c1.9-0.4,2.4-2.5,2.8-5.2c0.5-4,0.5-11.5,0.5-20.7v-40.3l-14.1,0.2c-5.9,0.1-8.2,0.8-9.7,3
				c-1,1.6-1.3,2.3-1.6,3c-0.3,0.8-0.6,1-1,1c-0.3,0-0.5-0.3-0.5-0.9c0-1,1.9-9.1,2.1-9.9c0.2-0.6,0.6-1.8,1-1.8
				c0.7,0,1.6,1,4.2,1.1c2.8,0.3,6.4,0.5,7.5,0.5h35.7c3,0,5.2-0.2,6.8-0.5c1.4-0.2,2.3-0.5,2.7-0.5c0.5,0,0.5,0.6,0.5,1.1
				c0,2.9-0.3,9.4-0.3,10.5c0,0.9-0.3,1.2-0.7,1.2c-0.5,0-0.7-0.3-0.8-1.6l-0.1-1c-0.3-2.9-2.6-5-11.7-5.2l-12-0.2V157.7z"/>
		</g>
		<g>
			<path class="st0" d="M161.1,112c21.4,0,37.4,13.5,37.4,35.7c0,21.3-15,38.9-38,38.9c-26.1,0-36.9-20.3-36.9-37.4
				C123.6,133.8,134.8,112,161.1,112z M163.1,183c8.6,0,26.3-5,26.3-32.7c0-22.8-13.9-35.1-28.9-35.1c-15.9,0-27.8,10.5-27.8,31.3
				C132.6,168.7,146,183,163.1,183z"/>
		</g>
		<g>
			<path class="st0" d="M209.2,140.9c0-14.9,0-17.5-0.2-20.6c-0.2-3.2-1-4.8-4.1-5.4c-0.8-0.2-2.4-0.3-3.2-0.3
				c-0.4,0-0.8-0.2-0.8-0.6c0-0.6,0.5-0.8,1.5-0.8c4.3,0,10.3,0.3,10.8,0.3c1,0,8.3-0.3,11.2-0.3c6,0,12.4,0.6,17.4,4.2
				c2.4,1.7,6.6,6.4,6.6,12.9c0,7-3,14.1-11.5,22c7.8,10,14.3,18.5,19.8,24.4c5.1,5.4,9.2,6.5,11.6,6.9c1.8,0.3,3.1,0.3,3.7,0.3
				c0.5,0,0.9,0.3,0.9,0.6c0,0.6-0.6,0.8-2.3,0.8h-6.8c-5.3,0-7.7-0.5-10.2-1.8c-4.1-2.2-7.4-6.9-12.9-14c-4-5.2-8.5-11.6-10.4-14.1
				c-0.4-0.4-0.7-0.6-1.2-0.6l-11.7-0.2c-0.5,0-0.7,0.3-0.7,0.8v2.3c0,9.1,0,16.7,0.5,20.7c0.3,2.8,0.9,4.9,3.7,5.2
				c1.3,0.2,3.4,0.4,4.3,0.4c0.6,0,0.8,0.3,0.8,0.6c0,0.5-0.5,0.8-1.5,0.8c-5.2,0-11.2-0.3-11.7-0.3c-0.1,0-6.1,0.3-8.9,0.3
				c-1,0-1.5-0.2-1.5-0.8c0-0.3,0.2-0.6,0.8-0.6c0.9,0,2-0.2,2.9-0.4c1.9-0.4,2.4-2.5,2.8-5.2c0.5-4,0.5-11.5,0.5-20.7V140.9z
				 M216.8,149.2c0,0.5,0.2,0.9,0.7,1.1c1.4,0.9,5.8,1.5,10,1.5c2.3,0,5-0.3,7.1-1.8c3.3-2.3,5.8-7.4,5.8-14.7
				c0-11.9-6.3-19-16.5-19c-2.9,0-5.4,0.3-6.4,0.6c-0.5,0.2-0.8,0.6-0.8,1.1V149.2z"/>
		</g>
		<g>
			<path class="st0" d="M289,157.7c0,9.1,0,16.7,0.5,20.7c0.3,2.8,0.9,4.9,3.7,5.2c1.3,0.2,3.4,0.4,4.3,0.4c0.6,0,0.8,0.3,0.8,0.6
				c0,0.5-0.5,0.8-1.5,0.8c-5.2,0-11.2-0.3-11.7-0.3s-6.5,0.3-9.3,0.3c-1,0-1.5-0.2-1.5-0.8c0-0.3,0.2-0.6,0.8-0.6
				c0.9,0,2-0.2,2.9-0.4c1.9-0.4,2.4-2.5,2.8-5.2c0.5-4,0.5-11.5,0.5-20.7v-16.8c0-14.9,0-17.5-0.2-20.6c-0.2-3.2-1.1-4.9-3.2-5.3
				c-1-0.3-2.3-0.4-3-0.4c-0.4,0-0.8-0.2-0.8-0.6c0-0.6,0.5-0.8,1.5-0.8c3.1,0,9.1,0.3,9.6,0.3s6.5-0.3,9.3-0.3c1,0,1.5,0.2,1.5,0.8
				c0,0.4-0.4,0.6-0.8,0.6c-0.7,0-1.2,0.1-2.4,0.3c-2.6,0.5-3.3,2.1-3.5,5.4c-0.2,3-0.2,5.7-0.2,20.6V157.7z"/>
		</g>
		<g>
			<path class="st0" d="M317.2,140.9c0-14.9,0-17.5-0.2-20.6c-0.2-3.2-1-4.8-4.1-5.4c-0.8-0.2-2.4-0.3-3.2-0.3
				c-0.4,0-0.8-0.2-0.8-0.6c0-0.6,0.5-0.8,1.5-0.8c2.2,0,4.8,0,6.9,0.1l3.9,0.2c0.7,0,19.6,0,21.8-0.1c1.8-0.1,3.3-0.3,4.1-0.5
				c0.5-0.1,0.9-0.5,1.3-0.5c0.3,0,0.4,0.4,0.4,0.9c0,0.7-0.5,1.8-0.8,4.5c-0.1,1-0.3,5.1-0.5,6.3c-0.1,0.5-0.3,1-0.7,1
				c-0.6,0-0.8-0.5-0.8-1.2c0-0.7-0.1-2.3-0.6-3.4c-0.7-1.5-1.6-2.7-6.8-3.2c-1.6-0.2-12-0.3-13-0.3c-0.4,0-0.6,0.3-0.6,1v26.3
				c0,0.7,0.1,1,0.6,1c1.2,0,12.9,0,15.1-0.2c2.3-0.2,3.6-0.4,4.5-1.3c0.7-0.8,1-1.2,1.4-1.2c0.3,0,0.5,0.2,0.5,0.8
				c0,0.6-0.5,2.2-0.8,5.3c-0.2,1.9-0.4,5.4-0.4,6.1c0,0.8,0,1.8-0.7,1.8c-0.5,0-0.7-0.4-0.7-0.9c0-1,0-1.9-0.4-3.1
				c-0.4-1.3-1.2-3-5-3.3c-2.6-0.3-12-0.5-13.6-0.5c-0.5,0-0.7,0.3-0.7,0.7v8.4c0,3.2-0.1,14.3,0,16.3c0.3,6.6,1.7,7.8,11,7.8
				c2.5,0,6.7,0,9.1-1c2.5-1,3.6-3,4.3-6.9c0.2-1,0.4-1.4,0.9-1.4c0.6,0,0.6,0.8,0.6,1.4c0,0.8-0.8,7.2-1.2,9.2
				c-0.7,2.5-1.4,2.5-5.1,2.5c-7.1,0-12.4-0.2-16.1-0.3c-3.7-0.2-6-0.3-7.4-0.3c-0.2,0-1.8,0-3.8,0.1c-1.9,0-4.1,0.2-5.5,0.2
				c-1,0-1.5-0.2-1.5-0.8c0-0.3,0.2-0.6,0.8-0.6c0.9,0,2-0.2,2.9-0.4c1.9-0.4,2.4-2.5,2.8-5.2c0.5-4,0.5-11.5,0.5-20.7V140.9z"/>
		</g>
		<g>
			<path class="st0" d="M365.3,184.1c-1.3-0.7-1.4-1-1.4-3.6c0-4.8,0.4-8.6,0.5-10.1c0.1-1,0.3-1.5,0.8-1.5c0.6,0,0.7,0.3,0.7,1
				c0,0.9,0,2.2,0.3,3.5c1.4,7,7.7,9.7,14.1,9.7c9.1,0,13.6-6.6,13.6-12.7c0-6.6-2.8-10.4-10.9-17.1l-4.3-3.5
				c-10.1-8.3-12.4-14.2-12.4-20.7c0-10.2,7.6-17.1,19.7-17.1c3.7,0,6.5,0.4,8.9,1c1.8,0.4,2.6,0.5,3.3,0.5s1,0.2,1,0.7
				s-0.4,3.6-0.4,10.1c0,1.5-0.2,2.2-0.7,2.2c-0.6,0-0.7-0.5-0.8-1.2c-0.1-1.1-0.7-3.7-1.2-4.8c-0.6-1-3.1-5-11.9-5
				c-6.6,0-11.7,4.1-11.7,11c0,5.4,2.5,8.9,11.6,16l2.7,2.1c11.2,8.9,13.9,14.8,13.9,22.4c0,3.9-1.5,11.1-8.1,15.8
				c-4.1,2.9-9.2,4-14.4,4C373.6,186.6,369.2,186,365.3,184.1z"/>
		</g>
		<g>
			<path class="st0" d="M418,23.6c1.9-1.9,4-2.9,6.4-4.1c3.2-1.6,5.4-3.1,8.9-4.3c2.2-0.8,5.6-2.8,6-5.2
				c-1.4,9.5-7.9,18.2-16.6,22.2c-2,0.9-9.7,2.7-11.9,3.3C410.4,33.7,416.2,25.5,418,23.6z"/>
		</g>
		<g>
			<path class="st0" d="M408.8,39.9c0-0.6-1.4-2-1.8-2.4c-2-2.6-4.1-5.4-6.9-7.1c-3.7-2.3-7.7-4.6-10-8.5c-2.2-3.8-2.1-8.9,0.3-12.6
				c-0.5,0.7,2.9,4.8,3.4,5.4c2,2.4,4.7,4.1,7.1,6.1c2,1.7,3.5,3.8,4.6,6.2C407.4,30.9,408.6,35.4,408.8,39.9z"/>
		</g>
		<g>
			<path class="st0" d="M437.1,43.7c-2.2-0.4-3.3-2.7-4.8-4.4c-2.4-2.7-6.1-4.1-9.7-4.1c-3.6,0-7.2,1.2-10.4,2.9
				c1.6,2.1,3.2,4.3,5.6,5.5c2.1,1,4.5,1.1,6.8,0.9c2.3-0.2,4.6-0.7,6.9-0.9C433.2,43.5,435.3,43.4,437.1,43.7z"/>
		</g>
		<g>
			<path class="st0" d="M408.3,25.3c-0.6-1.8-1.5-3.5-2-5.3c-0.9-3.9,0.5-8.1,3-11.2s5.9-5.4,9.4-7.3c-0.9,2.4-0.2,5,0,7.5
				c0.4,4.5-1,9.2-3.7,12.8c-0.9,1.1-1.9,2.2-2.6,3.4c-1.1,1.7-1.6,3.7-2.2,5.6C408.7,30,408.8,26.8,408.3,25.3z"/>
		</g>
	</g>
</g>
</svg>
