<?xml version="1.0" encoding="utf-8"?>
<!-- Generator: Adobe Illustrator 21.0.0, SVG Export Plug-In . SVG Version: 6.00 Build 0)  -->
<svg version="1.1" id="Layer_1" xmlns="http://www.w3.org/2000/svg" xmlns:xlink="http://www.w3.org/1999/xlink" x="0px" y="0px"
	 viewBox="0 0 114.9 40.7" style="enable-background:new 0 0 114.9 40.7;" xml:space="preserve">
<style type="text/css">
	.st0{fill:#FFFFFF;}
</style>
<path class="st0" d="M32.1,1.7H5.7C2.6,1.7,0,4.3,0,7.4v26.3c0,3.2,2.6,5.7,5.7,5.7h14.7V24.6h-5.7v-6.5h5.7v-4.8
	c0-5.6,3.4-8.7,8.4-8.7c2.4,0,4.5,0.2,5.1,0.3v5.9l-3.5,0c-2.7,0-3.3,1.3-3.3,3.2v4.2h6.5l-0.8,6.5h-5.7v14.8h4.8
	c3.2,0,5.7-2.6,5.7-5.7V7.4C37.8,4.3,35.2,1.7,32.1,1.7z"/>
<g>
	<path class="st0" d="M114.9,7.3c0-0.5-0.4-0.8-0.8-0.8H75c-0.5,0-0.8,0.4-0.8,0.8v27.5c0,0.5,0.4,0.8,0.8,0.8h39
		c0.5,0,0.8-0.4,0.8-0.8V7.3z M111.9,8.3L94.6,25L77.3,8.3H111.9z M75.9,33.9V9.7L94,27c0.2,0.2,0.4,0.2,0.6,0.2
		c0.2,0,0.4-0.1,0.6-0.2l17.9-17.4v24.3H75.9z"/>
</g>
<g>
	<path class="st0" d="M65.9,40.7H44.6c-0.5,0-1-0.4-1-1V1c0-0.5,0.4-1,1-1h21.3c0.5,0,1,0.4,1,1v38.8C66.9,40.3,66.5,40.7,65.9,40.7
		z M45.6,38.8H65V1.9H45.6V38.8z"/>
	<path class="st0" d="M62,32H48.5c-0.5,0-1-0.4-1-1V6.8c0-0.5,0.4-1,1-1H62c0.5,0,1,0.4,1,1V31C63,31.6,62.6,32,62,32z M49.4,30.1
		h11.6V7.8H49.4V30.1z"/>
	<path class="st0" d="M55.3,37.8c-1.3,0-2.4-1.1-2.4-2.4c0-1.3,1.1-2.4,2.4-2.4c1.3,0,2.4,1.1,2.4,2.4
		C57.7,36.7,56.6,37.8,55.3,37.8z M55.3,34.9c-0.3,0-0.5,0.2-0.5,0.5c0,0.3,0.2,0.5,0.5,0.5c0.3,0,0.5-0.2,0.5-0.5
		C55.7,35.1,55.5,34.9,55.3,34.9z"/>
</g>
</svg>
